<!-- Generated by IcoMoon.io -->
<svg version="1.1" xmlns="http://www.w3.org/2000/svg" width="512" height="512" viewBox="0 0 512 512">
<title></title>
<g id="icomoon-ignore">
</g>
<path fill="#000" d="M269.237 297.74h42.198c141.954 0 134.337-101.092 134.337-135.651 0-24.792 7.596-135.651-134.337-135.651h-125.216c-5.739 0-10.435 4.695-10.435 10.435v198.26h-52.174c-5.739 0-13.043 3.903-16.215 8.682l-30.156 45.245c-3.193 4.779-1.106 8.682 4.633 8.682h93.912v41.74h-52.174c-5.739 0-13.043 3.902-16.215 8.682l-30.156 45.245c-3.193 4.779-1.106 8.682 4.633 8.682h93.912v93.912c0 5.74 4.696 10.435 10.435 10.435h62.149c5.739 0 10.435-4.695 10.435-10.435v-93.912h115.241c5.74 0 13.043-3.902 16.216-8.682l30.156-45.245c3.193-4.779 1.106-8.682-4.633-8.682h-156.98v-31.304c0-5.74 4.695-10.435 10.435-10.435zM259.26 109.915h62.608c35.875 0 45.642 5.552 45.642 52.174s-9.454 52.174-45.642 52.174h-62.608v-104.347z"></path>
</svg>
