<!-- Generated by IcoMoon.io -->
<svg version="1.1" xmlns="http://www.w3.org/2000/svg" width="1024" height="1024" viewBox="0 0 1024 1024">
<title></title>
<g id="icomoon-ignore">
</g>
<path fill="#000" d="M993.715 468.020c-61.726-153.523-228.389-230.286-500.005-230.286h-127.998v-146.283c0-9.911-3.621-18.483-10.856-25.719-7.239-7.239-15.803-10.86-25.713-10.86s-18.483 3.621-25.719 10.86l-292.568 292.566c-7.235 7.245-10.856 15.813-10.856 25.719 0 9.903 3.621 18.471 10.856 25.713l292.57 292.574c7.243 7.231 15.815 10.864 25.719 10.864 9.901 0 18.471-3.631 25.713-10.864 7.237-7.233 10.856-15.807 10.856-25.715v-146.293h127.998c37.325 0 70.749 1.137 100.27 3.418 29.519 2.288 58.868 6.383 87.999 12.295 29.149 5.904 54.487 13.992 76.013 24.288 21.522 10.295 41.618 23.529 60.287 39.713 18.671 16.2 33.91 35.426 45.727 57.72 11.801 22.288 21.041 48.657 27.712 79.135 6.657 30.48 10.001 64.959 10.001 103.425 0 20.947-0.959 44.384-2.858 70.287 0 2.276-0.472 6.755-1.431 13.426-0.947 6.671-1.425 11.712-1.425 15.135 0 5.706 1.617 10.472 4.849 14.282 3.246 3.807 7.726 5.706 13.438 5.706 6.096 0 11.424-3.232 16-9.713 2.658-3.424 5.126-7.617 7.425-12.575 2.288-4.946 4.864-10.658 7.714-17.136 2.864-6.479 4.864-11.034 6-13.706 48.375-108.554 72.568-194.456 72.568-257.697-0.004-75.801-10.093-139.236-30.286-190.277z"></path>
</svg>
