<?xml version="1.0" encoding="utf-8"?>
<!-- Generator: Adobe Illustrator 22.1.0, SVG Export Plug-In . SVG Version: 6.00 Build 0)  -->
<svg version="1.1" id="Слой_1" xmlns="http://www.w3.org/2000/svg" xmlns:xlink="http://www.w3.org/1999/xlink" x="0px" y="0px"
	 viewBox="0 0 100 100" style="enable-background:new 0 0 100 100;" xml:space="preserve">
<style type="text/css">
	.st0{fill:url(#SVGID_1_);}
</style>
<g>
	<g>
		<linearGradient id="SVGID_1_" gradientUnits="userSpaceOnUse" x1="19.6196" y1="26.9522" x2="78.435" y2="85.7675">
			<stop  offset="0" style="stop-color:#D34915"/>
			<stop  offset="0.3015" style="stop-color:#E18417"/>
			<stop  offset="0.6356" style="stop-color:#F1BA16"/>
			<stop  offset="0.8773" style="stop-color:#FBD915"/>
			<stop  offset="1" style="stop-color:#FFE514"/>
		</linearGradient>
		<path class="st0" d="M62.9,66.9c-3.2,0-5.9-2.6-5.9-5.9v-9.3c0-3.2,2.6-5.9,5.9-5.9h21.9v-9.8c0-3.6-2.9-6.5-6.5-6.5H74l-1.2-7.4
			c-0.1-0.6-0.4-1.1-0.9-1.4c-0.5-0.3-1.1-0.4-1.6-0.3l-4.9,1.2L63.6,18c-0.2-0.5-0.7-0.9-1.2-1.1c-0.5-0.2-1.1-0.1-1.6,0.1L37,29.6
			H19.7c-3.6,0-6.5,2.9-6.5,6.5v40.6c0,3.6,2.9,6.5,6.5,6.5h58.7c3.6,0,6.5-2.9,6.5-6.5v-9.8H62.9z M69.1,25.1l0.7,4.5h-0.7
			l-1.9-4.1L69.1,25.1z M60.8,21.7l3.7,7.8H45.9L60.8,21.7z M62.9,50h22.1c1,0,1.8,0.8,1.8,1.7V61c0,1-0.8,1.8-1.8,1.8H62.9
			c-1,0-1.7-0.8-1.7-1.8v-9.3C61.2,50.8,62,50,62.9,50L62.9,50z M62.9,50"/>
	</g>
</g>
</svg>
