<?xml version="1.0" encoding="utf-8"?>
<!-- Generator: Adobe Illustrator 22.1.0, SVG Export Plug-In . SVG Version: 6.00 Build 0)  -->
<svg version="1.1" id="Слой_1" xmlns="http://www.w3.org/2000/svg" xmlns:xlink="http://www.w3.org/1999/xlink" x="0px" y="0px"
	 viewBox="0 0 100 100" style="enable-background:new 0 0 100 100;" xml:space="preserve">
<style type="text/css">
	.st0{fill:url(#SVGID_1_);}
</style>
<linearGradient id="SVGID_1_" gradientUnits="userSpaceOnUse" x1="22.6067" y1="79.4243" x2="77.3933" y2="24.6377">
	<stop  offset="0" style="stop-color:#E74310"/>
	<stop  offset="0.4721" style="stop-color:#F1843B"/>
	<stop  offset="0.8223" style="stop-color:#F7AA5D"/>
	<stop  offset="1" style="stop-color:#F9B76B"/>
</linearGradient>
<polygon class="st0" points="50,13.3 52.3,15.9 54.9,13.6 56.8,16.5 59.6,14.5 61.2,17.6 64.3,16 65.4,19.3 68.7,18.1 69.4,21.5 
	72.8,20.7 73.1,24.2 76.5,23.8 76.4,27.3 79.9,27.3 79.3,30.8 82.7,31.3 81.7,34.6 85.1,35.5 83.6,38.7 86.9,40.1 85,43 88.1,44.8 
	85.9,47.5 88.7,49.6 86.2,52 88.7,54.5 85.9,56.6 88.1,59.3 85,61 86.9,64 83.6,65.3 85.1,68.5 81.7,69.5 82.7,72.8 79.3,73.3 
	79.9,76.7 76.4,76.8 76.5,80.3 73.1,79.9 72.8,83.4 69.4,82.6 68.7,86 65.4,84.8 64.3,88.1 61.2,86.4 59.6,89.6 56.8,87.6 
	54.9,90.5 52.3,88.1 50,90.8 47.7,88.1 45.1,90.5 43.2,87.6 40.4,89.6 38.8,86.4 35.7,88.1 34.6,84.8 31.3,86 30.6,82.6 27.2,83.4 
	26.9,79.9 23.5,80.3 23.6,76.8 20.1,76.7 20.7,73.3 17.3,72.8 18.3,69.5 14.9,68.5 16.4,65.3 13.1,64 15,61 11.9,59.3 14.1,56.6 
	11.3,54.5 13.8,52 11.3,49.6 14.1,47.5 11.9,44.8 15,43 13.1,40.1 16.4,38.7 14.9,35.5 18.3,34.6 17.3,31.3 20.7,30.8 20.1,27.3 
	23.6,27.3 23.5,23.8 26.9,24.2 27.2,20.7 30.6,21.5 31.3,18.1 34.6,19.3 35.7,16 38.8,17.6 40.4,14.5 43.2,16.5 45.1,13.6 
	47.7,15.9 "/>
</svg>
