<svg width="100" height="100" xmlns="http://www.w3.org/2000/svg" xmlns:svg="http://www.w3.org/2000/svg">
	<style type="text/css">.st0{fill:url(#SVGID_1_);}
		.st1{fill:url(#SVGID_2_);}
		.st2{fill:url(#SVGID_3_);}
		.st3{fill:url(#SVGID_4_);}</style>
	<g>
		<title>Layer 1</title>
		<g id="svg_1">
			<linearGradient transform="translate(5,22) " id="SVGID_1_" gradientUnits="userSpaceOnUse" x1="73.673" y1="70.7878" x2="84.3792" y2="81.494">
				<stop offset="0" stop-color="#D34915"/>
				<stop offset="0.3015" stop-color="#E18417"/>
				<stop offset="0.6356" stop-color="#F1BA16"/>
				<stop offset="0.8773" stop-color="#FBD915"/>
				<stop offset="1" stop-color="#FFE514"/>
			</linearGradient>
			<path class="st0" d="m78.5,63.3c-4.2,0 -7.6,3.4 -7.6,7.6c0,4.2 3.4,7.6 7.6,7.6c4.2,0 7.6,-3.4 7.6,-7.6c0,-4.2 -3.4,-7.6 -7.6,-7.6zm0,9.8c-1.2,0 -2.2,-1 -2.2,-2.2c0,-1.2 1,-2.2 2.2,-2.2c1.2,0 2.2,1 2.2,2.2c0.1,1.2 -0.9,2.2 -2.2,2.2z" id="svg_2"/>
			<linearGradient transform="translate(5,22) " id="SVGID_2_" gradientUnits="userSpaceOnUse" x1="58.5377" y1="43.0207" x2="92.2454" y2="76.7284">
				<stop offset="0" stop-color="#D34915"/>
				<stop offset="0.3015" stop-color="#E18417"/>
				<stop offset="0.6356" stop-color="#F1BA16"/>
				<stop offset="0.8773" stop-color="#FBD915"/>
				<stop offset="1" stop-color="#FFE514"/>
			</linearGradient>
			<path class="st1" d="m93.7,49.8l-14.5,-17.4c-0.3,-0.4 -0.8,-0.6 -1.4,-0.6l-13.1,0c-1,0 -1.8,0.8 -1.8,1.8l0,34.8c0,1 0.8,1.8 1.8,1.8l1.9,0c0.9,0 1.7,-0.6 1.8,-1.5c0.7,-5.4 5,-8.7 10.1,-8.7c5.2,0 9.4,3.3 10.1,8.7c0.1,0.9 0.9,1.5 1.8,1.5l1.9,0c1,0 1.8,-0.8 1.8,-1.8l0,-17.5c0,-0.4 -0.1,-0.8 -0.4,-1.1zm-10.1,-2l-15.3,0c-1,0 -1.8,-0.8 -1.8,-1.8l0,-8.9c0,-1 0.8,-1.8 1.8,-1.8l7.9,0c0.5,0 1,0.2 1.4,0.6l7.4,8.9c0.9,1.3 0.1,3 -1.4,3z" id="svg_3"/>
			<linearGradient transform="translate(5,22) " id="SVGID_3_" gradientUnits="userSpaceOnUse" x1="7.5937" y1="26.2438" x2="57.7864" y2="76.4365">
				<stop offset="0" stop-color="#D34915"/>
				<stop offset="0.3015" stop-color="#E18417"/>
				<stop offset="0.6356" stop-color="#F1BA16"/>
				<stop offset="0.8773" stop-color="#FBD915"/>
				<stop offset="1" stop-color="#FFE514"/>
			</linearGradient>
			<path class="st2" d="m57.6,22l-50.8,0c-1,0 -1.8,0.8 -1.8,1.8l0,44.6c0,1 0.8,1.8 1.8,1.8l4.6,0c0.9,0 1.7,-0.6 1.8,-1.5c0.7,-5.4 5,-8.7 10.1,-8.7c5.2,0 9.4,3.3 10.1,8.7c0.1,0.9 0.9,1.5 1.8,1.5l22.4,0c1,0 1.8,-0.8 1.8,-1.8l0,-44.6c0,-1 -0.8,-1.8 -1.8,-1.8z" id="svg_4"/>
			<linearGradient transform="translate(5,22) " id="SVGID_4_" gradientUnits="userSpaceOnUse" x1="18.4262" y1="70.7878" x2="29.1324" y2="81.494">
				<stop offset="0" stop-color="#D34915"/>
				<stop offset="0.3015" stop-color="#E18417"/>
				<stop offset="0.6356" stop-color="#F1BA16"/>
				<stop offset="0.8773" stop-color="#FBD915"/>
				<stop offset="1" stop-color="#FFE514"/>
			</linearGradient>
			<path class="st3" d="m23.3,63.3c-4.2,0 -7.6,3.4 -7.6,7.6c0,4.2 3.4,7.6 7.6,7.6c4.2,0 7.6,-3.4 7.6,-7.6c0,-4.2 -3.4,-7.6 -7.6,-7.6zm0,9.8c-1.2,0 -2.2,-1 -2.2,-2.2c0,-1.2 1,-2.2 2.2,-2.2c1.2,0 2.2,1 2.2,2.2c0,1.2 -1,2.2 -2.2,2.2z" id="svg_5"/>
		</g>
	</g>
</svg>