<?xml version="1.0" encoding="UTF-8" standalone="no"?>
<!-- Created with Inkscape (http://www.inkscape.org/) -->

<svg
   xmlns:dc="http://purl.org/dc/elements/1.1/"
   xmlns:cc="http://creativecommons.org/ns#"
   xmlns:rdf="http://www.w3.org/1999/02/22-rdf-syntax-ns#"
   xmlns:svg="http://www.w3.org/2000/svg"
   xmlns="http://www.w3.org/2000/svg"
   xmlns:sodipodi="http://sodipodi.sourceforge.net/DTD/sodipodi-0.dtd"
   xmlns:inkscape="http://www.inkscape.org/namespaces/inkscape"
   width="584.16376"
   height="527.08887"
   viewBox="0 0 154.55999 139.45893"
   version="1.1"
   id="svg3753"
   inkscape:version="0.92.3 (2405546, 2018-03-11)"
   sodipodi:docname="koshel.svg">
  <defs
     id="defs3747">
    <style
       id="style3780"
       type="text/css">
   <![CDATA[
    .fil0 {fill:url(#id0)}
   ]]>
  </style>
    <linearGradient
       y2="19281.5"
       x2="17659.9"
       y1="4865.1802"
       x1="3243.6101"
       gradientUnits="userSpaceOnUse"
       id="id0">
   <stop
   id="stop3782"
   style="stop-color:#D34915"
   offset="0" />

   <stop
   id="stop3784"
   style="stop-color:#E18417"
   offset="0.301961" />

   <stop
   id="stop3786"
   style="stop-color:#F1BA16"
   offset="0.639216" />

   <stop
   id="stop3788"
   style="stop-color:#FBD915"
   offset="0.878431" />

   <stop
   id="stop3790"
   style="stop-color:#FFE514"
   offset="1" />

  </linearGradient>
  </defs>
  <sodipodi:namedview
     id="base"
     pagecolor="#ffffff"
     bordercolor="#666666"
     borderopacity="1.0"
     inkscape:pageopacity="0.0"
     inkscape:pageshadow="2"
     inkscape:zoom="0.35"
     inkscape:cx="400"
     inkscape:cy="-36.455524"
     inkscape:document-units="mm"
     inkscape:current-layer="layer1"
     showgrid="false"
     units="px"
     fit-margin-top="0"
     fit-margin-left="0"
     fit-margin-right="0"
     fit-margin-bottom="0"
     inkscape:window-width="1920"
     inkscape:window-height="1017"
     inkscape:window-x="-8"
     inkscape:window-y="-8"
     inkscape:window-maximized="1" />
  <metadata
     id="metadata3750">
    <rdf:RDF>
      <cc:Work
         rdf:about="">
        <dc:format>image/svg+xml</dc:format>
        <dc:type
           rdf:resource="http://purl.org/dc/dcmitype/StillImage" />
        <dc:title></dc:title>
      </cc:Work>
    </rdf:RDF>
  </metadata>
  <g
     inkscape:label="Layer 1"
     inkscape:groupmode="layer"
     id="layer1"
     transform="translate(0,0.27113469)">
    <g
       style="clip-rule:evenodd;fill-rule:evenodd;image-rendering:optimizeQuality;shape-rendering:geometricPrecision;text-rendering:geometricPrecision"
       id="g3815"
       transform="matrix(0.01,0,0,0.01,-27.24,-51.372199)">
      <g
         id="Слой_x0020_1">
  <metadata
   id="CorelCorpID_0Corel-Layer" />

  <path
   id="path3796"
   d="m 13161,15633 c -672,0 -1239,-546 -1239,-1239 v -1953 c 0,-672 546,-1239 1239,-1239 h 4599 V 9144 c 0,-756 -609,-1365 -1365,-1365 h -903 l -252,-1554 c -21,-126 -84,-231 -189,-294 -105,-63 -231,-84 -336,-63 l -1029,252 -378,-756 c -42,-105 -147,-189 -252,-231 -105,-42 -231,-21 -336,21 L 7722,7800 H 4089 c -756,0 -1365,609 -1365,1365 v 8526 c 0,756 609,1365 1365,1365 h 12327 c 756,0 1365,-609 1365,-1365 v -2058 z m 1302,-8778 147,945 h -147 l -399,-861 z m -1743,-714 777,1638 H 9591 Z m 441,5943 h 4641 c 210,0 378,168 378,357 v 1953 c 0,210 -168,378 -378,378 h -4641 c -210,0 -357,-168 -357,-378 v -1953 c 0,-189 168,-357 357,-357 z m 0,0 z"
   class="fil0"
   inkscape:connector-curvature="0"
   style="fill:url(#id0)" />

 </g>
    </g>
  </g>
</svg>
