<svg width="100" height="100" xmlns="http://www.w3.org/2000/svg" xmlns:svg="http://www.w3.org/2000/svg" xmlns:xlink="http://www.w3.org/1999/xlink" preserveAspectRatio="xMidYMid meet">
    <defs>
        <path id="a38aFBteH" d="m311.6,0.02l0.26,0.01l0.26,0.02l0.26,0.03l0.26,0.03l0.25,0.04l0.26,0.05l0.25,0.05l0.25,0.06l0.25,0.06l0.25,0.07l0.25,0.08l0.24,0.09l0.24,0.09l0.24,0.1l0.24,0.1l0.24,0.11l0.24,0.11l0.24,0.12l0.23,0.12l0.24,0.13l0.23,0.13l0.24,0.13l0.23,0.14l0.23,0.14l0.23,0.15l0.22,0.15l0.23,0.16l0.22,0.16l0.22,0.16l0.21,0.17l0.22,0.17l0.2,0.17l0.21,0.18l0.2,0.18l0.2,0.19l0.19,0.19l0.2,0.19l0.18,0.19l0.18,0.2l0.18,0.2l0.17,0.21l0.17,0.21l0.16,0.21l0.16,0.21l0.15,0.22l0.14,0.22l0.14,0.23l0.13,0.22l0.13,0.23l0.12,0.23l0.11,0.23l0.11,0.24l0.1,0.24l11.52,23.04l31.36,-7.68l0.24,-0.05l0.24,-0.04l0.25,-0.03l0.25,-0.03l0.25,-0.03l0.25,-0.02l0.25,-0.02l0.26,-0.01l0.25,-0.01l0.26,0l0.26,0l0.26,0.01l0.26,0.01l0.26,0.02l0.26,0.02l0.27,0.03l0.26,0.03l0.26,0.03l0.27,0.04l0.26,0.05l0.26,0.05l0.27,0.06l0.26,0.06l0.26,0.06l0.27,0.07l0.26,0.07l0.26,0.08l0.26,0.09l0.26,0.09l0.26,0.09l0.26,0.1l0.25,0.1l0.26,0.11l0.25,0.11l0.25,0.12l0.25,0.12l0.25,0.13l0.25,0.13l0.24,0.14l0.24,0.14l0.24,0.15l0.23,0.15l0.23,0.15l0.22,0.16l0.22,0.17l0.21,0.17l0.21,0.17l0.21,0.18l0.2,0.18l0.19,0.19l0.19,0.19l0.18,0.2l0.18,0.2l0.18,0.2l0.17,0.21l0.17,0.21l0.16,0.21l0.15,0.22l0.15,0.22l0.15,0.23l0.14,0.23l0.14,0.23l0.13,0.24l0.13,0.24l0.12,0.24l0.12,0.25l0.11,0.25l0.11,0.25l0.1,0.26l0.1,0.26l0.09,0.26l0.09,0.27l0.09,0.27l0.08,0.27l0.07,0.27l0.07,0.28l0.06,0.28l0.06,0.28l0.06,0.28l0.05,0.29l7.68,47.36l27.52,0l1.72,0.03l1.7,0.11l1.68,0.17l1.66,0.23l1.64,0.3l1.62,0.37l1.59,0.42l1.56,0.48l1.54,0.55l1.51,0.6l1.48,0.66l1.45,0.71l1.41,0.77l1.38,0.82l1.35,0.87l1.31,0.92l1.27,0.97l1.23,1.01l1.19,1.06l1.15,1.11l1.11,1.15l1.06,1.19l1.01,1.23l0.97,1.27l0.92,1.31l0.87,1.35l0.82,1.38l0.77,1.41l0.71,1.45l0.66,1.48l0.6,1.51l0.55,1.54l0.48,1.56l0.42,1.59l0.37,1.62l0.3,1.64l0.23,1.66l0.17,1.68l0.11,1.7l0.03,1.72l0,62.72l-140.16,0l-1.58,0.03l-1.55,0.1l-1.54,0.16l-1.52,0.21l-1.5,0.28l-1.47,0.34l-1.45,0.39l-1.43,0.45l-1.4,0.5l-1.37,0.56l-1.34,0.61l-1.32,0.66l-1.28,0.7l-1.26,0.76l-1.22,0.8l-1.19,0.84l-1.15,0.89l-1.11,0.93l-1.08,0.98l-1.04,1.01l-1,1.05l-0.96,1.09l-0.92,1.12l-0.87,1.16l-0.83,1.19l-0.79,1.23l-0.73,1.25l-0.7,1.28l-0.64,1.31l-0.59,1.34l-0.54,1.36l-0.49,1.39l-0.44,1.41l-0.38,1.43l-0.32,1.45l-0.27,1.47l-0.21,1.48l-0.16,1.5l-0.09,1.52l-0.03,1.53l0,59.52l0.02,1.05l0.07,1.05l0.12,1.04l0.17,1.04l0.21,1.03l0.26,1.03l0.31,1.01l0.35,1.02l0.4,1.01l0.45,1l0.5,1l0.54,0.99l0.59,0.98l0.64,0.99l0.68,0.97l0.73,0.97l0.78,0.96l0.83,0.96l0.87,0.95l0.92,0.95l0.97,0.94l1.01,0.94l1.06,0.93l1.11,0.92l1.16,0.92l1.2,0.91l1.25,0.91l1.3,0.9l1.35,0.9l1.39,0.89l1.44,0.89l1.49,0.87l1.53,0.88l1.58,0.87l1.63,0.86l1.68,0.86l1.72,0.85l1.77,0.84l1.82,0.85l1.86,0.83l140.8,0l0,62.72l-0.03,1.72l-0.11,1.7l-0.17,1.68l-0.23,1.66l-0.3,1.64l-0.37,1.62l-0.42,1.59l-0.48,1.56l-0.55,1.54l-0.6,1.51l-0.66,1.48l-0.71,1.45l-0.77,1.41l-0.82,1.38l-0.87,1.35l-0.92,1.31l-0.97,1.27l-1.01,1.23l-1.06,1.19l-1.11,1.15l-1.15,1.11l-1.19,1.06l-1.23,1.01l-1.27,0.97l-1.31,0.92l-1.35,0.87l-1.38,0.82l-1.41,0.77l-1.45,0.71l-1.48,0.66l-1.51,0.6l-1.54,0.55l-1.56,0.48l-1.59,0.42l-1.62,0.37l-1.64,0.3l-1.66,0.23l-1.68,0.17l-1.7,0.11l-1.72,0.03l-375.68,0l-1.72,-0.03l-1.7,-0.11l-1.68,-0.17l-1.66,-0.23l-1.64,-0.3l-1.62,-0.37l-1.59,-0.42l-1.56,-0.48l-1.54,-0.55l-1.51,-0.6l-1.48,-0.66l-1.45,-0.71l-1.41,-0.77l-1.38,-0.82l-1.35,-0.87l-1.31,-0.92l-1.27,-0.97l-1.23,-1.01l-1.19,-1.06l-1.15,-1.11l-1.11,-1.15l-1.06,-1.19l-1.01,-1.23l-0.97,-1.27l-0.92,-1.31l-0.87,-1.35l-0.82,-1.38l-0.77,-1.41l-0.71,-1.45l-0.66,-1.48l-0.6,-1.51l-0.55,-1.54l-0.48,-1.56l-0.42,-1.59l-0.37,-1.62l-0.3,-1.64l-0.23,-1.66l-0.17,-1.68l-0.11,-1.7l-0.03,-1.72l0,-259.84l0.03,-1.72l0.11,-1.7l0.17,-1.68l0.23,-1.66l0.3,-1.64l0.37,-1.62l0.42,-1.59l0.48,-1.56l0.55,-1.54l0.6,-1.51l0.66,-1.48l0.71,-1.45l0.77,-1.41l0.82,-1.38l0.87,-1.35l0.92,-1.31l0.97,-1.27l1.01,-1.23l1.06,-1.19l1.11,-1.15l1.15,-1.11l1.19,-1.06l1.23,-1.01l1.27,-0.97l1.31,-0.92l1.35,-0.87l1.38,-0.82l1.41,-0.77l1.45,-0.71l1.48,-0.66l1.51,-0.6l1.54,-0.55l1.56,-0.48l1.59,-0.42l1.62,-0.37l1.64,-0.3l1.66,-0.23l1.68,-0.17l1.7,-0.11l1.72,-0.03l110.72,0l152.32,-80.64l0.24,-0.09l0.24,-0.1l0.25,-0.09l0.25,-0.08l0.25,-0.09l0.25,-0.08l0.25,-0.08l0.26,-0.07l0.25,-0.07l0.26,-0.07l0.26,-0.06l0.26,-0.06l0.26,-0.06l0.26,-0.05l0.26,-0.05l0.27,-0.05l0.26,-0.04l0.26,-0.03l0.27,-0.03l0.26,-0.03l0.26,-0.02l0.27,-0.02l0.26,-0.01l0.26,-0.01l0.27,0l0.26,0.01l0.26,0.01zm46.16,81.96l4.48,0l-4.48,-28.8l-12.16,2.56l12.16,26.24zm-29.44,-0.64l-23.68,-49.92l-95.36,49.92l119.04,0z"/>
        <linearGradient y2="1.03866" x2="0.88635" y1="0.153" x1="0.08721" id="gradientc1ontW8IqW">
            <stop stop-color="#d34915" offset="0%"/>
            <stop stop-color="#e18417" offset="30.15%"/>
            <stop stop-color="#f1ba16" offset="63.56%"/>
            <stop stop-color="#fbd915" offset="87.72999999999999%"/>
            <stop stop-color="#ffe514" offset="100%"/>
        </linearGradient>
    </defs>
    <g>
        <title>Layer 1</title>
        <g stroke="null" id="svg_1">
            <g stroke="null" id="svg_2">
                <g stroke="null" id="svg_3">
                    <use stroke="null" x="0" y="6.34169" transform="matrix(0.2089435148266396,0,0,0.22121311786920994,2,1.5971294857993854) " id="svg_4" fill="url(#gradientc1ontW8IqW)" xlink:href="#a38aFBteH"/>
                    <g stroke="null" id="svg_5">
                        <use stroke="#000000" x="0" y="6.34169" transform="matrix(0.2089435148266396,0,0,0.22121311786920994,2,1.5971294857993854) " id="svg_6" stroke-opacity="0" fill-opacity="0" xlink:href="#a38aFBteH"/>
                    </g>
                </g>
            </g>
        </g>
    </g>
</svg>