<?xml version="1.0" encoding="UTF-8" standalone="no"?>
<!-- Created with Inkscape (http://www.inkscape.org/) -->

<svg
   xmlns:dc="http://purl.org/dc/elements/1.1/"
   xmlns:cc="http://creativecommons.org/ns#"
   xmlns:rdf="http://www.w3.org/1999/02/22-rdf-syntax-ns#"
   xmlns:svg="http://www.w3.org/2000/svg"
   xmlns="http://www.w3.org/2000/svg"
   xmlns:sodipodi="http://sodipodi.sourceforge.net/DTD/sodipodi-0.dtd"
   xmlns:inkscape="http://www.inkscape.org/namespaces/inkscape"
   width="625.43622"
   height="227.45197"
   viewBox="0 0 165.48 60.180001"
   version="1.1"
   id="svg8"
   inkscape:version="0.92.3 (2405546, 2018-03-11)"
   sodipodi:docname="logo.svg">
  <defs
     id="defs2">
    <style
       id="style3727"
       type="text/css">
   <![CDATA[
    .fil0 {fill:#2B2A29;fill-rule:nonzero}
   ]]>
  </style>
  </defs>
  <sodipodi:namedview
     id="base"
     pagecolor="#ffffff"
     bordercolor="#666666"
     borderopacity="1.0"
     inkscape:pageopacity="0.0"
     inkscape:pageshadow="2"
     inkscape:zoom="0.98994949"
     inkscape:cx="495.20017"
     inkscape:cy="5.1205359"
     inkscape:document-units="mm"
     inkscape:current-layer="layer1"
     showgrid="false"
     units="px"
     fit-margin-top="0"
     fit-margin-left="0"
     fit-margin-right="0"
     fit-margin-bottom="0"
     inkscape:window-width="1920"
     inkscape:window-height="1017"
     inkscape:window-x="-8"
     inkscape:window-y="-8"
     inkscape:window-maximized="1" />
  <metadata
     id="metadata5">
    <rdf:RDF>
      <cc:Work
         rdf:about="">
        <dc:format>image/svg+xml</dc:format>
        <dc:type
           rdf:resource="http://purl.org/dc/dcmitype/StillImage" />
        <dc:title></dc:title>
      </cc:Work>
    </rdf:RDF>
  </metadata>
  <g
     inkscape:label="Layer 1"
     inkscape:groupmode="layer"
     id="layer1"
     transform="translate(0,0.041)">
    <g
       style="clip-rule:evenodd;fill-rule:evenodd;image-rendering:optimizeQuality;shape-rendering:geometricPrecision;text-rendering:geometricPrecision;fill:#ffffff"
       id="g3745"
       transform="matrix(0.01,0,0,0.01,-21.835235,-116.9391)">
      <g
         id="Слой_x0020_1"
         style="fill:#ffffff">
  <metadata
   id="CorelCorpID_0Corel-Layer" />

  <path
   id="path3732"
   d="m 2425.5235,13734.81 v -1243 -584 c 0,-12 -2,-26 -5,-43 -3,-17 -16,-33 -39,-48 -23,-16 -34,-39 -34,-70 0,-31 19,-46 57,-46 l 93,18 96,-18 c 29,0 55,8 79,25 7,5 58,61 154,167 67,72 123,142 168,210 14,26 29,51 45,74 15,23 35,47 57,72 23,26 48,46 77,62 29,15 56,23 82,23 33,0 64,-11 93,-32 29,-22 63,-68 104,-141 19,-33 63,-99 132,-197 79,-113 131,-182 157,-209 36,-36 73,-54 111,-54 36,7 62,11 79,11 l 111,-11 c 31,0 46,14 46,43 0,7 -4,15 -10,23 -7,8 -17,18 -31,30 -14,12 -23,23 -27,32 -4,10 -7,29 -7,57 0,29 2,116 5,260 4,144 5,414 5,810 0,121 -1,280 -4,474 -2,195 -5,386 -7,574 0,46 5,74 14,86 19,12 33,21 43,29 21,17 32,38 32,64 0,40 -25,61 -75,61 -19,0 -45,-4 -79,-13 -33,-8 -62,-13 -86,-13 h -297 c -45,0 -81,4 -107,13 -26,8 -45,13 -57,13 -50,0 -75,-19 -75,-58 0,-21 10,-42 29,-61 12,-10 24,-19 36,-29 12,-17 18,-48 18,-93 v -956 c 0,-67 7,-134 21,-201 5,-29 17,-72 36,-129 10,-26 14,-51 14,-72 0,-43 -13,-70 -39,-81 -26,-11 -48,-16 -64,-16 -29,0 -58,19 -89,57 -21,24 -40,52 -57,86 -43,76 -85,151 -125,225 -40,67 -74,100 -100,100 -19,0 -54,-24 -104,-71 -50,-48 -84,-83 -102,-107 -18,-24 -32,-40 -41,-50 -24,-21 -51,-32 -82,-32 -24,0 -40,10 -50,29 -10,20 -14,47 -14,83 0,29 2,69 5,121 4,51 5,79 5,81 v 770 c 0,21 0,46 0,72 0,26 0,42 0,47 0,33 4,59 12,77 8,18 24,33 50,45 25,12 49,23 72,32 27,17 41,40 41,68 0,43 -25,65 -75,65 -14,0 -42,-4 -84,-13 -42,-8 -64,-13 -66,-13 h -86 c -17,0 -35,1 -55,4 -20,2 -40,5 -59,7 -38,0 -57,-14 -57,-43 0,-24 9,-46 27,-67 18,-20 35,-40 52,-59 21,-36 32,-144 32,-326 z m 8032.9995,2037 c -58,34 -131,103 -200,184 -69,81 -135,173 -188,264 -54,91 -95.9995,182 -121.9995,268 -26,86 -36,168 -34,251 2,83 17,166 41,244 24.9998,78 59.9995,152 101.9995,225 43,73 93,144 141,208 48,64 93,119 136,167 43,47 83,87 117,119 l 7,6 7,-6 c 34,-32 74,-71 117,-119 43,-47 88,-103 136,-167 48,-64 99,-135 141,-208 43,-73 78,-146 102,-225 25,-78 39,-161 41,-244 2,-83 -8,-165 -34,-251 -26,-86 -68,-177 -122,-268 -54,-91 -119,-183 -188,-264 -69,-81 -143,-151 -200,-184 z m -12,-706 c 148,0 269,120 269,269 0,148 -120,269 -269,269 -148,0 -269,-120 -269,-269 0,-148 120,-269 269,-269 z m 6809,1005 c 4,-17 10,-38 12,-63 2,-25 0,-53 -6,-85 -6,-31 -17,-66 -31,-101 -14,-35 -30,-72 -50,-106 -20,-34 -42,-67 -65,-93 -23,-27 -45,-47 -72,-66 -26,-19 -57,-36 -87,-50 -30,-13 -60,-23 -92,-31 -32,-8 -65,-14 -100,-17 -35,-3 -70,-3 -108,3 -38,5 -79,15 -112,27 -34,11 -61,24 -92,41 -30,17 -63,37 -100,61 -36,23 -76,49 -116,72 -40,23 -79,44 -117,62 -38,18 -75,32 -105,42 -30,10 -55,15 -84,20 -29,5 -62,9 -99,13 -37,4 -77,7 -118,9 -40,2 -81,1 -116,0 -36,-1 -67,-3 -89,-5 -22,-2 -36,-3 -39,2 -3,5 3,15 11,29 8,14 17,30 27,50 9,20 19,44 27,74 8,30 15,66 19,95 4,29 4,51 2,79 -2,28 -7,63 -13,93 -6,30 -14,54 -33,82 -19,27 -47,58 -70,81 -23,23 -39,39 -60,57 -21,18 -46,37 -71,53 -25,16 -48,28 -82,39 -34,11 -79,22 -116,29 -37,7 -66,10 -110,12 -44,2 -102,2 -157,2 -55,0 -106,0 -154,-3 -47,-3 -90,-8 -133,-13 -43,-5 -85,-10 -130,-18 -45,-8 -92,-18 -139,-29 -47,-10 -94,-21 -151,-36 -57,-15 -124,-35 -184,-53 -59,-19 -111,-36 -174,-59 -63,-23 -137,-50 -200,-73 -63,-23 -114,-40 -178,-62 -64,-22 -140,-48 -200,-71 -61,-23 -106,-43 -144,-60 -38,-17 -68,-30 -96,-43 -28,-13 -54,-25 -61,-23 -7,2 6,17 20,34 14,17 30,36 42,52 13,16 22,30 42,59 20,29 50,72 74,110 24,38 42,70 54,95 12,24 17,41 25,67 7,26 16,62 20,93 4,32 4,59 1,90 -4,31 -11,66 -22,99 -11,33 -25,64 -41,93 -16,28 -35,53 -55,75 -20,22 -40,41 -68,60 -29,19 -65,40 -102,55 -37,15 -75,24 -118,31 -43,7 -93,10 -141,9 -48,-1 -96,-7 -146,-16 -50,-9 -102,-23 -155,-38 -53,-15 -107,-32 -163,-53 -56,-21 -113,-45 -165,-70 -52,-25 -99,-51 -145,-78 -46,-27 -92,-55 -144,-91 -52,-36 -111,-79 -155,-113 -44,-35 -74,-61 -114,-103 -40,-42 -91,-99 -129,-145 -38,-46 -65,-81 -90,-117 -25,-36 -50,-73 -73,-110 -23,-37 -44,-74 -64,-112 -20,-38 -38,-76 -52,-104 -13,-28 -22,-46 -29,-68 -7,-22 -13,-49 -18,-76 19,21 39,43 58,66 19,24 36,50 60,87 23,36 52,83 82,126 29,43 59,82 88,117 29,35 57,66 85,96 28,30 56,60 85,89 29,29 59,57 86,81 27,24 51,44 82,67 31,23 68,49 105,72 37,23 74,43 109,63 36,20 70,38 108,59 38,20 80,42 124,63 43,21 88,40 128,56 40,16 76,28 114,39 38,11 78,21 115,29 37,8 71,13 104,17 32,4 63,6 96,6 33,0 70,-1 102,-5 32,-4 61,-12 86,-23 26,-11 50,-25 68,-39 19,-14 33,-28 48,-49 15,-21 31,-48 43,-76 12,-27 20,-54 25,-84 5,-30 6,-63 2,-97 -4,-33 -12,-66 -28,-103 -15,-37 -37,-76 -64,-119 -27,-43 -60,-88 -93,-126 -33,-38 -65,-68 -95,-93 -30,-25 -57,-45 -95,-70 -38,-24 -85,-52 -126,-75 -40,-22 -73,-39 -105,-55 -32,-16 -62,-30 -100,-47 -38,-17 -83,-37 -114,-51 -31,-14 -48,-21 -69,-27 -21,-6 -46,-11 -77,-12 -31,-1 -68,2 -96,6 -28,5 -47,12 -66,24 -19,12 -38,30 -50,48 -12,19 -17,39 -20,59 -3,21 -5,42 -3,66 2,24 7,51 20,83 13,32 33,69 57,101 24,33 52,62 84,91 32,30 68,61 109,92 41,31 88,64 130,89 41,26 77,45 108,61 31,16 58,28 84,40 -27,-3 -53,-6 -91,-17 -38,-10 -87,-28 -129,-45 -42,-17 -78,-33 -111,-50 -33,-18 -65,-37 -93,-56 -28,-19 -53,-37 -77,-55 -24,-18 -46,-34 -68,-55 -22,-21 -44,-46 -62,-75 -18,-29 -33,-62 -43,-93 -10,-31 -15,-60 -18,-91 -3,-30 -4,-62 -3,-92 1,-31 4,-61 14,-89 9,-29 25,-56 40,-77 15,-21 30,-35 49,-49 19,-14 41,-28 66,-41 25,-13 54,-24 90,-30 35,-6 77,-8 119,-5 42,2 83,8 129,19 46,11 96,28 143,48 48,20 93,43 210,92 117,48 307,122 445,172 139,51 226,78 310,106 83,28 162,55 237,80 75,25 148,47 212,67 65,20 121,37 177,54 56,17 112,33 172,50 60,17 124,35 183,50 59,15 112,27 156,36 44,9 78,15 116,20 38,5 79,10 123,11 44,2 91,1 152,-1 61,-2 136,-5 203,-16 68,-11 128,-30 173,-52 45,-22 74,-46 101,-74 26,-27 50,-58 66,-90 16,-32 25,-64 28,-97 2,-33 -3,-66 -16,-101 -13,-35 -34,-73 -60,-108 -26,-35 -58,-69 -95,-101 -37,-32 -80,-64 -132,-94 -52,-30 -112,-60 -169,-81 -57,-22 -110,-36 -150,-47 -40,-12 -69,-21 -101,-28 -33,-7 -70,-11 -99,-14 -29,-3 -50,-5 -73,-5 -23,0 -49,2 -73,10 -24,8 -46,23 -61,37 -15,14 -23,29 -30,43 -7,14 -12,26 -15,40 -3,14 -4,28 -1,43 3,15 11,31 23,48 12,17 27,34 44,50 17,16 37,31 59,43 22,13 48,23 76,30 28,7 58,10 82,11 24,2 42,2 60,2 -38,7 -76,14 -110,15 -34,1 -63,-3 -89,-11 -26,-7 -49,-16 -73,-30 -24,-14 -49,-32 -69,-50 -20,-18 -34,-35 -46,-56 -12,-21 -23,-46 -28,-71 -5,-25 -5,-51 -1,-77 5,-26 15,-53 27,-77 13,-24 29,-45 47,-63 19,-18 40,-33 61,-43 21,-10 42,-14 74,-18 32,-3 75,-6 125,-4 49,1 105,7 155,15 50,8 95,20 142,35 47,15 97,34 142,52 45,18 85,35 120,53 36,18 68,35 97,54 30,18 57,37 78,52 21,15 37,26 59,36 22,10 51,19 81,25 29,6 59,11 103,10 43,0 100,-5 156,-13 56,-9 112,-22 172,-42 60,-20 124,-48 182,-77 57,-29 108,-60 152,-89 44,-29 83,-57 127,-83 45,-26 96,-51 138,-68 42,-17 74,-26 111,-33 37,-7 78,-11 113,-11 35,0 64,4 104,13 41,8 93,21 136,38 43,16 78,37 110,59 32,23 61,48 88,72 27,24 51,48 72,74 21,26 40,53 55,78 15,25 26,46 36,70 10,24 19,49 25,77 6,28 10,58 12,81 2,23 2,37 0,61 -2,24 -6,57 -11,80 -5,24 -11,38 -20,50 -10,12 -22,23 -35,35 -12,12 -24,24 -31,32 -7,8 -10,12 -13,16 3,-12 5,-24 9,-41 z m -764,-282 c -104,0 -187,84 -187,187 0,104 84,187 187,187 104,0 187,-84 187,-187 0,-104 -84,-187 -187,-187 z m -3190,559 c 26,17 68,46 108,81 39,35 76,77 108,123 32,46 59,97 83,151 24,54 45,110 54,161 10,51 9,98 4,143 -6,45 -16,89 -32,123 -16,34 -36,59 -60,78 -24,20 -50,35 -78,39 -28,4 -57,-5 -80,-17 -22,-13 -38,-30 -53,-58 -15,-28 -30,-68 -35,-108 -5,-40 0,-80 8,-114 8,-34 17,-63 29,-92 11,-29 24,-58 31,-91 8,-32 11,-68 8,-105 -3,-37 -12,-76 -23,-112 -11,-35 -25,-67 -37,-92 -12,-25 -21,-42 -34,-64 -13,-22 -29,-49 -46,-77 9,6 19,12 45,30 z m 1229,-194 c -108,-18 -221,-45 -335,-75 -114,-30 -229,-62 -358,-101 -129,-39 -271,-84 -405,-135 -134,-50 -261,-105 -387,-161 32,30 63,59 105,89 42,30 95,60 161,96 66,36 144,76 224,112 80,35 161,65 239,89 78,24 153,41 232,59 79,17 162,34 248,47 85,13 173,23 272,25 98,2 207,-3 316,-8 -102,-10 -204,-19 -312,-37 z m -10869.9995,-82 c -4,-17 -10,-38 -12,-63 -2,-25 0,-53 6,-85 6,-31 17,-66 31,-101 14,-35 30,-72 50,-106 20,-34 42,-67 65,-93 23,-27 45,-47 72,-66 26,-19 57,-36 87,-50 30,-13 60,-23 92,-31 32,-8 65,-14 100,-17 35,-3 70,-3 108,3 38,5 79,15 112,27 34,11 61,24 92,41 30,17 63,37 100,61 36,23 76,49 116,72 40,23 79,44 117,62 38,18 75,32 105,42 30,10 55,15 84,20 29,5 62,9 99,13 37,4 77,7 118,9 40,2 81,1 116,0 36,-1 67,-3 89,-5 22,-2 36,-3 39,2 3,5 -3,15 -11,29 -8,14 -17,30 -27,50 -9,20 -19,44 -27,74 -8,30 -15,66 -19,95 -4,29 -4,51 -2,79 2,28 7,63 13,93 6,30 14,54 33,82 19,27 47,58 70,81 23,23 39,39 60,57 21,18 46,37 71,53 25,16 48,28 82,39 34,11 79,22 116,29 37,7 66,10 110,12 44,2 102,2 157,2 55,0 106,0 154,-3 47,-3 90,-8 133,-13 43,-5 85,-10 130,-18 45,-8 92,-18 139,-29 47,-10 94,-21 151,-36 57,-15 124,-35 184,-53 59,-19 111,-36 174,-59 63,-23 137,-50 200,-73 63,-23 114,-40 178,-62 64,-22 140,-48 200,-71 61,-23 106,-43 144,-60 38,-17 68,-30 96,-43 28,-13 54,-25 61,-23 7,2 -6,17 -20,34 -14,17 -30,36 -42,52 -13,16 -22,30 -42,59 -20,29 -50,72 -74,110 -24,38 -42,70 -54,95 -12,24 -17,41 -25,67 -7,26 -16,62 -20,93 -4,32 -4,59 -1,90 4,31 11,66 22,99 11,33 25,64 41,93 16,28 35,53 55,75 20,22 40,41 68,60 29,19 65,40 102,55 37,15 75,24 118,31 43,7 93,10 141,9 48,-1 96,-7 146,-16 50,-9 102,-23 155,-38 53,-15 107,-32 163,-53 56,-21 113,-45 165,-70 52,-25 99,-51 145,-78 46,-27 92,-55 144,-91 52,-36 111,-79 155,-113 44,-35 74,-61 114,-103 40,-42 91,-99 129,-145 38,-46 65,-81 90,-117 25,-36 50,-73 73,-110 23,-37 44,-74 64,-112 20,-38 38,-76 52,-104 13,-28 22,-46 29,-68 7,-22 13,-49 18,-76 -19,21 -39,43 -58,66 -19,24 -36,50 -60,87 -23,36 -52,83 -82,126 -29,43 -59,82 -88,117 -29,35 -57,66 -85,96 -28,30 -56,60 -85,89 -29,29 -59,57 -86,81 -27,24 -51,44 -82,67 -31,23 -68,49 -105,72 -37,23 -74,43 -109,63 -36,20 -70,38 -108,59 -38,20 -80,42 -124,63 -43,21 -88,40 -128,56 -40,16 -76,28 -114,39 -38,11 -78,21 -115,29 -37,8 -71,13 -104,17 -32,4 -63,6 -96,6 -33,0 -70,-1 -102,-5 -32,-4 -61,-12 -86,-23 -26,-11 -50,-25 -68,-39 -19,-14 -33,-28 -48,-49 -15,-21 -31,-48 -43,-76 -12,-27 -20,-54 -25,-84 -5,-30 -6,-63 -2,-97 4,-33 12,-66 28,-103 15,-37 37,-76 64,-119 27,-43 60,-88 93,-126 33,-38 65,-68 95,-93 30,-25 57,-45 95,-70 38,-24 85,-52 126,-75 40,-22 73,-39 105,-55 32,-16 62,-30 100,-47 38,-17 83,-37 114,-51 31,-14 48,-21 69,-27 21,-6 46,-11 77,-12 31,-1 68,2 96,6 28,5 47,12 66,24 19,12 38,30 50,48 12,19 17,39 20,59 3,21 5,42 3,66 -2,24 -7,51 -20,83 -13,32 -33,69 -57,101 -24,33 -52,62 -84,91 -32,30 -68,61 -109,92 -41,31 -88,64 -130,89 -41,26 -77,45 -108,61 -31,16 -58,28 -84,40 27,-3 53,-6 91,-17 38,-10 87,-28 129,-45 42,-17 78,-33 111,-50 33,-18 65,-37 93,-56 28,-19 53,-37 77,-55 24,-18 46,-34 68,-55 22,-21 44,-46 62,-75 18,-29 33,-62 43,-93 10,-31 15,-60 18,-91 3,-30 4,-62 3,-92 -1,-31 -4,-61 -14,-89 -9,-29 -25,-56 -40,-77 -15,-21 -30,-35 -49,-49 -19,-14 -41,-28 -66,-41 -25,-13 -54,-24 -90,-30 -35,-6 -77,-8 -119,-5 -42,2 -83,8 -129,19 -46,11 -96,28 -143,48 -48,20 -93,43 -210,92 -117,48 -307,122 -445,172 -139,51 -226,78 -310,106 -83,28 -162,55 -237,80 -75,25 -148,47 -212,67 -65,20 -121,37 -177,54 -56,17 -112,33 -172,50 -60,17 -124,35 -183,50 -59,15 -112,27 -156,36 -44,9 -78,15 -116,20 -38,5 -79,10 -123,11 -44,2 -91,1 -152,-1 -61,-2 -136,-5 -203,-16 -68,-11 -128,-30 -173,-52 -45,-22 -74,-46 -101,-74 -26,-27 -50,-58 -66,-90 -16,-32 -25,-64 -28,-97 -2,-33 3,-66 16,-101 13,-35 34,-73 60,-108 26,-35 58,-69 95,-101 37,-32 80,-64 132,-94 52,-30 112,-60 169,-81 57,-22 110,-36 150,-47 40,-12 69,-21 101,-28 33,-7 70,-11 99,-14 29,-3 50,-5 73,-5 23,0 49,2 73,10 24,8 46,23 61,37 15,14 23,29 30,43 7,14 12,26 15,40 3,14 4,28 1,43 -3,15 -11,31 -23,48 -12,17 -27,34 -44,50 -17,16 -37,31 -59,43 -22,13 -48,23 -76,30 -28,7 -58,10 -82,11 -24,2 -42,2 -60,2 38,7 76,14 110,15 34,1 63,-3 89,-11 26,-7 49,-16 73,-30 24,-14 49,-32 69,-50 20,-18 34,-35 46,-56 12,-21 23,-46 28,-71 5,-25 5,-51 1,-77 -5,-26 -15,-53 -27,-77 -13,-24 -29,-45 -47,-63 -19,-18 -40,-33 -61,-43 -21,-10 -42,-14 -74,-18 -32,-3 -75,-6 -125,-4 -49,1 -105,7 -155,15 -50,8 -95,20 -142,35 -47,15 -97,34 -142,52 -45,18 -85,35 -120,53 -36,18 -68,35 -97,54 -30,18 -57,37 -78,52 -21,15 -37,26 -59,36 -22,10 -51,19 -81,25 -29,6 -59,11 -103,10 -43,0 -100,-5 -156,-13 -56,-9 -112,-22 -172,-42 -60,-20 -124,-48 -182,-77 -57,-29 -108,-60 -152,-89 -44,-29 -83,-57 -127,-83 -45,-26 -96,-51 -138,-68 -42,-17 -74,-26 -111,-33 -37,-7 -78,-11 -113,-11 -35,0 -64,4 -104,13 -41,8 -93,21 -136,38 -43,16 -78,37 -110,59 -32,23 -61,48 -88,72 -27,24 -51,48 -72,74 -21,26 -40,53 -55,78 -15,25 -26,46 -36,70 -10,24 -19,49 -25,77 -6,28 -10,58 -12,81 -2,23 -2,37 0,61 2,24 6,57 11,80 5,24 11,38 20,50 10,12 22,23 35,35 12,12 24,24 31,32 7,8 10,12 13,16 -3,-12 -5,-24 -9,-41 z m 764,-282 c 104,0 187,84 187,187 0,104 -84,187 -187,187 -104,0 -187,-84 -187,-187 0,-104 84,-187 187,-187 z m 3190,559 c -26,17 -68,46 -108,81 -39,35 -76,77 -108,123 -32,46 -59,97 -83,151 -24,54 -45,110 -54,161 -10,51 -9,98 -4,143 6,45 16,89 32,123 16,34 36,59 60,78 24,20 50,35 78,39 28,4 57,-5 80,-17 22,-13 38,-30 53,-58 15,-28 30,-68 35,-108 5,-40 0,-80 -8,-114 -8,-34 -17,-63 -29,-92 -11,-29 -24,-58 -31,-91 -8,-32 -11,-68 -8,-105 3,-37 12,-76 23,-112 11,-35 25,-67 37,-92 12,-25 21,-42 34,-64 13,-22 29,-49 46,-77 -9,6 -19,12 -45,30 z m -1229,-194 c 108,-18 221,-45 335,-75 114,-30 229,-62 358,-101 129,-39 271,-84 405,-135 134,-50 261,-105 387,-161 -32,30 -63,59 -105,89 -42,30 -95,60 -161,96 -66,36 -144,76 -224,112 -80,35 -161,65 -239,89 -78,24 -153,41 -232,59 -79,17 -162,34 -248,47 -85,13 -173,23 -272,25 -98,2 -207,-3 -316,-8 102,-10 204,-19 312,-37 z m -4202,-1355 H 18731.523 v -210 H 2183.5235 Z m 14280.9995,-580 h -211 l -104,10 c -29,4 -54,8 -75,11 -21,3 -40,5 -57,5 -60,0 -89,-21 -89,-64 0,-29 17,-52 50,-70 33,-18 52,-29 57,-34 19,-24 29,-68 29,-132 0,-38 -6,-94 -18,-168 -38,-236 -60,-369 -64,-400 -29,-195 -49,-340 -61,-434 -12,-94 -18,-173 -18,-238 0,-55 -2,-92 -7,-111 -12,-45 -38,-68 -79,-68 -50,0 -91,44 -121,132 -12,36 -30,112 -54,229 -24,117 -52,285 -86,504 -43,274 -64,462 -64,564 0,43 7,77 20,102 13,25 41,45 84,59 17,5 30,13 41,23 11,11 16,28 16,52 0,19 -8,32 -25,38 -17,6 -37,9 -61,9 -21,0 -53,-3 -95,-9 -42,-6 -82,-9 -120,-9 -40,0 -73,2 -96,7 -24,5 -43,7 -57,7 -48,0 -71,-20 -71,-61 0,-29 11,-49 32,-61 38,-14 64,-25 79,-32 26,-14 44,-48 54,-100 l 21,-161 14,-107 29,-207 c 36,-281 87,-553 154,-815 45,-171 92,-344 139,-518 14,-69 21,-121 21,-157 0,-45 -8,-76 -23,-93 -15,-17 -39,-33 -70,-50 -17,-7 -32,-18 -45,-34 -13,-15 -20,-35 -20,-59 0,-45 36,-68 107,-68 19,0 52,2 100,7 48,5 74,7 79,7 l 86,-7 118,-16 c 57,-9 107,-13 150,-13 45,0 77,7 95,20 18,13 35,40 52,80 29,69 63,203 102,403 39,199 76,411 109,635 l 86,657 50,442 c 5,38 13,73 23,104 11,30 27,52 50,64 23,12 40,21 54,29 13,7 20,23 20,46 0,29 -9,48 -27,59 -18,11 -35,16 -52,16 -29,0 -54,-2 -75,-7 -21,-5 -40,-8 -55,-11 -15,-2 -36,-4 -61,-5 -25,-1 -45,-2 -59,-2 z m 1910,0 h -233 c -48,0 -83,2 -108,5 -24,4 -52,5 -83,5 -24,0 -44,-4 -60,-11 -17,-7 -25,-24 -25,-50 0,-17 7,-33 20,-48 13,-15 21,-26 26,-30 15,-17 23,-55 23,-114 0,-14 0,-42 0,-84 0,-42 0,-74 0,-98 v -750 c 0,-57 3,-133 10,-229 6,-95 14,-163 24,-204 2,-7 5,-20 8,-39 3,-19 5,-32 5,-39 0,-36 -13,-54 -39,-54 -19,0 -36,12 -50,36 -14,24 -24,46 -29,65 -26,79 -52,149 -79,211 -50,120 -100,238 -150,355 -19,51 -32,95 -39,133 -7,39 -11,73 -11,104 0,43 1,82 4,117 2,35 5,67 7,99 v 391 c 0,24 1,46 2,65 1,19 14,36 38,50 7,5 16,12 27,21 11,10 16,25 16,47 0,48 -21,71 -64,71 -14,0 -42,-4 -84,-13 -42,-8 -70,-13 -84,-13 h -232 c -60,0 -106,4 -139,13 -33,8 -62,13 -86,13 -43,0 -64,-18 -64,-54 0,-39 13,-63 38,-74 25,-11 38,-46 38,-106 0,-155 -3,-327 -9,-514 -6,-188 -9,-302 -9,-343 0,-182 2,-374 5,-578 4,-203 8,-433 13,-689 0,-43 -8,-70 -25,-82 -33,-26 -50,-46 -50,-58 0,-29 21,-43 64,-43 21,0 45,2 71,7 26,5 40,7 43,7 h 366 c 38,0 66,-2 85,-7 19,-5 37,-7 54,-7 47,0 71,18 71,54 0,14 -4,26 -10,34 -7,9 -18,20 -35,35 -14,7 -23,16 -29,27 -5,11 -8,29 -8,55 v 502 c 0,62 -2,127 -5,195 -4,68 -5,116 -5,142 0,29 12,43 35,43 21,0 44,-35 70,-104 18,-52 38,-106 60,-161 56,-141 113,-282 171,-425 23,-62 35,-125 35,-189 0,-12 -1,-27 -2,-45 -1,-18 -13,-35 -34,-52 -21,-17 -32,-36 -32,-57 0,-36 24,-54 71,-54 h 67 l 71,14 h 343 c 18,0 37,-2 55,-5 18,-3 36,-7 55,-10 35,0 53,15 53,46 0,29 -12,48 -36,58 -24,14 -36,45 -36,93 0,72 1,155 4,251 2,96 5,192 7,288 v 399 c 0,300 -2,525 -7,675 -5,151 -10,319 -14,503 0,43 17,78 50,104 21,17 32,38 32,64 0,39 -25,58 -74,58 -26,0 -48,-4 -67,-13 -18,-8 -47,-13 -85,-13 z m -12678.9995,0 h -233 c -48,0 -83,2 -108,5 -24,4 -52,5 -83,5 -24,0 -44,-4 -60,-11 -17,-7 -25,-24 -25,-50 0,-17 7,-33 20,-48 13,-15 21,-26 26,-30 15,-17 23,-55 23,-114 0,-14 0,-42 0,-84 0,-42 0,-74 0,-98 v -750 c 0,-57 3,-133 10,-229 6,-95 14,-163 24,-204 2,-7 5,-20 8,-39 3,-19 5,-32 5,-39 0,-36 -13,-54 -39,-54 -19,0 -36,12 -50,36 -14,24 -24,46 -29,65 -26,79 -52,149 -79,211 -50,120 -100,238 -150,355 -19,51 -32,95 -39,133 -7,39 -11,73 -11,104 0,43 1,82 4,117 2,35 5,67 7,99 v 391 c 0,24 1,46 2,65 1,19 14,36 38,50 7,5 16,12 27,21 11,10 16,25 16,47 0,48 -21,71 -64,71 -14,0 -42,-4 -84,-13 -42,-8 -70,-13 -84,-13 h -232 c -60,0 -106,4 -139,13 -33,8 -62,13 -86,13 -43,0 -64,-18 -64,-54 0,-39 13,-63 38,-74 25,-11 38,-46 38,-106 0,-155 -3,-327 -9,-514 -6,-188 -9,-302 -9,-343 0,-182 2,-374 5,-578 4,-203 8,-433 13,-689 0,-43 -8,-70 -25,-82 -33,-26 -50,-46 -50,-58 0,-29 21,-43 64,-43 21,0 45,2 71,7 26,5 40,7 43,7 h 366 c 38,0 66,-2 85,-7 19,-5 37,-7 54,-7 47,0 71,18 71,54 0,14 -4,26 -10,34 -7,9 -18,20 -35,35 -14,7 -23,16 -29,27 -5,11 -8,29 -8,55 v 502 c 0,62 -2,127 -5,195 -4,68 -5,116 -5,142 0,29 12,43 35,43 21,0 44,-35 70,-104 18,-52 38,-106 60,-161 56,-141 113,-282 171,-425 23,-62 35,-125 35,-189 0,-12 -1,-27 -2,-45 -1,-18 -13,-35 -34,-52 -21,-17 -32,-36 -32,-57 0,-36 24,-54 71,-54 h 67 l 71,14 h 343 c 18,0 37,-2 55,-5 18,-3 36,-7 55,-10 35,0 53,15 53,46 0,29 -12,48 -36,58 -24,14 -36,45 -36,93 0,72 1,155 4,251 2,96 5,192 7,288 v 399 c 0,300 -2,525 -7,675 -5,151 -10,319 -14,503 0,43 17,78 50,104 21,17 32,38 32,64 0,39 -25,58 -74,58 -26,0 -48,-4 -67,-13 -18,-8 -47,-13 -85,-13 z m 623,-2501 h 347 146 l 161,-18 c 105,0 207,27 307,82 155,88 266,214 332,379 48,119 71,250 71,393 0,229 -43,416 -130,561 -70,119 -158,200 -266,243 -39,14 -83,23 -135,27 -51,4 -88,5 -110,5 -132,0 -214,18 -247,55 -33,37 -49,104 -49,199 v 344 46 c 0,27 17,49 50,68 17,10 31,20 43,32 12,12 18,27 18,46 0,26 -7,42 -21,46 -14,5 -35,7 -63,8 -30,-1 -64,-3 -99,-9 -35,-5 -57,-8 -63,-8 h -332 c -23,0 -53,3 -88,8 -35,6 -58,8 -67,9 -31,-1 -48,-7 -53,-20 -5,-13 -7,-30 -7,-52 0,-7 4,-14 11,-23 8,-8 16,-16 24,-23 18,-17 29,-35 35,-54 5,-19 8,-36 8,-50 0,-19 0,-55 0,-107 0,-52 0,-94 0,-125 v -1696 c 0,-29 0,-58 0,-88 0,-30 0,-61 0,-95 0,-38 -7,-66 -21,-82 -17,-14 -27,-24 -32,-29 -12,-12 -18,-26 -18,-43 0,-33 26,-50 79,-50 17,0 43,3 79,9 36,6 66,9 89,9 z m 693,1143 v -657 c 0,-81 -2,-140 -5,-177 -4,-37 -10,-72 -20,-105 -10,-33 -27,-60 -54,-80 -26,-20 -51,-30 -75,-30 -38,0 -70,9 -95,27 -25,18 -38,47 -38,88 0,21 3,48 8,79 5,31 9,62 11,93 2,31 2,61 2,89 v 707 c 0,24 0,61 0,113 0,51 0,88 0,109 0,60 7,105 21,136 14,31 40,46 79,46 76,0 125,-52 146,-157 12,-55 18,-148 18,-279 z m 1761,874 v -1243 -584 c 0,-12 -2,-26 -5,-43 -3,-17 -16,-33 -39,-48 -23,-16 -34,-39 -34,-70 0,-31 19,-46 57,-46 l 93,18 96,-18 c 29,0 55,8 79,25 7,5 58,61 154,167 67,72 123,142 168,210 14,26 29,51 45,74 15,23 35,47 57,72 23,26 48,46 77,62 29,15 56,23 82,23 33,0 64,-11 93,-32 29,-22 63,-68 104,-141 19,-33 63,-99 132,-197 78.9995,-113 130.9995,-182 156.9995,-209 36,-36 73,-54 111,-54 36,7 62,11 79,11 l 111,-11 c 31,0 46,14 46,43 0,7 -4,15 -10,23 -7,8 -17,18 -31,30 -14,12 -23,23 -27,32 -4,10 -7,29 -7,57 0,29 2,116 5,260 4,144 5,414 5,810 0,121 -1,280 -4,474 -2,195 -5,386 -7,574 0,46 5,74 14,86 19,12 33,21 43,29 21,17 32,38 32,64 0,40 -25,61 -75,61 -19,0 -45,-4 -79,-13 -33,-8 -62,-13 -86,-13 h -296.9995 c -45,0 -81,4 -107,13 -26,8 -45,13 -57,13 -50,0 -75,-19 -75,-58 0,-21 10,-42 29,-61 12,-10 24,-19 36,-29 12,-17 18,-48 18,-93 v -956 c 0,-67 7,-134 21,-201 5,-29 17,-72 36,-129 10,-26 14,-51 14,-72 0,-43 -13,-70 -39,-81 -26,-11 -48,-16 -64,-16 -29,0 -58,19 -89,57 -21,24 -40,52 -57,86 -43,76 -85,151 -125,225 -40,67 -74,100 -100,100 -19,0 -54,-24 -104,-71 -50,-48 -84,-83 -102,-107 -18,-24 -32,-40 -41,-50 -24,-21 -51,-32 -82,-32 -24,0 -40,10 -50,29 -10,20 -14,47 -14,83 0,29 2,69 5,121 4,51 5,79 5,81 v 770 c 0,21 0,46 0,72 0,26 0,42 0,47 0,33 4,59 12,77 8,18 24,33 50,45 25,12 49,23 72,32 27,17 41,40 41,68 0,43 -25,65 -75,65 -14,0 -42,-4 -84,-13 -42,-8 -64,-13 -66,-13 h -86 c -17,0 -35,1 -55,4 -20,2 -40,5 -59,7 -38,0 -57,-14 -57,-43 0,-24 9,-46 27,-67 18,-20 35,-40 52,-59 21,-36 32,-144 32,-326 z m 2203.9995,-2017 h 514 c 17,0 30,-2 41,-7 11,-4 22,-10 34,-15 17,-4 43,-7 79,-7 31,0 54,3 70,9 15,6 23,36 23,91 l 18,125 c 2,17 10,49 23,96 13,48 20,85 20,111 0,36 -1,56 -4,61 -10,24 -37,36 -82,36 -57,0 -96,-31 -118,-93 -12,-48 -20,-81 -25,-98 -17,-55 -45,-103 -86,-144 -40,-41 -81,-61 -121,-61 -36,0 -61,10 -77,30 -15,20 -23,47 -23,80 0,21 1,43 4,66 2,23 5,45 7,66 v 461 c 0,55 5,94 14,118 21,52 63,79 125,79 26,0 46,-4 59,-13 13,-8 24,-23 32,-43 8,-20 15,-37 20,-50 5,-13 31,-20 79,-20 33,0 57,5 71,16 14,11 27,43 38,98 11,55 35,119 73,193 17,33 25,57 25,71 0,31 -7,57 -21,77 -14,20 -41,30 -82,30 -40,0 -72,-20 -96,-61 -17,-36 -33,-71 -49,-107 -33,-60 -82,-89 -146,-89 -57,0 -95,18 -113,54 -19,36 -29,81 -29,136 0,43 0,73 0,89 v 672 c 0,29 -1,58 -4,89 -2,31 -5,62 -7,93 0,52 8,92 25,118 17,26 51,39 104,39 40,0 79,-17 114,-50 36,-33 64,-87 84,-161 20,-74 36,-121 48,-143 26,-50 66,-75 118,-75 17,0 29,1 36,4 31,12 46,38 46,79 0,17 -4,39 -11,68 -36,117 -54,231 -54,343 0,40 -4,66 -13,77 -8,11 -27,16 -55,16 -38,0 -66,-4 -84,-13 -18,-8 -37,-17 -57,-27 -20,-10 -54,-14 -102,-14 h -68 -600 c -26,0 -51,1 -73,4 -23,2 -45,5 -66,7 -43,0 -64,-21 -64,-64 0,-21 10,-39 29,-52 19,-13 32,-24 38,-32 6,-8 9,-28 9,-59 0,-21 0,-64 0,-127 0,-63 0,-115 0,-155 v -1740 -100 c 0,-43 -4,-70 -10,-82 -7,-12 -18,-21 -34,-27 -16,-6 -24,-18 -24,-38 0,-36 26,-54 79,-54 l 86,7 c 55,7 126,11 214,11 z m 1633,2501 h -372 c -14,0 -42,3 -82,9 -40,6 -70,9 -89,9 -57,0 -86,-20 -86,-61 0,-12 5,-23 14,-34 10,-11 23,-23 41,-38 18,-14 27,-45 27,-93 0,-117 -1,-253 -2,-410 -2,-156 -3,-305 -5,-449 v -754 -476 -43 c 0,-40 -7,-66 -20,-75 -14,-10 -24,-17 -32,-21 -8,-5 -12,-14 -12,-29 0,-36 27,-54 82,-54 31,0 80,3 148,9 68,6 118,9 152,9 h 607 c 33,0 66,-5 98,-14 32,-10 61,-14 88,-14 50,0 79,10 88,29 8,19 13,75 13,168 l 11,118 c 2,14 7,41 14,80 7,39 11,71 11,95 0,36 -5,65 -14,88 -10,23 -31,34 -64,34 -79,0 -126,-40 -141,-121 -15,-81 -26,-136 -30,-165 -12,-58 -35,-105 -68,-140 -33,-35 -79,-52 -136,-52 -62,0 -109,17 -141,52 -32,35 -48,83 -48,146 2,17 4,30 4,39 0,26 0,49 0,70 0,20 0,40 0,59 0,53 -1,96 -1,131 -1,35 -2,68 -2,99 0,36 5,63 16,81 11,18 34,27 70,27 14,0 37,0 68,0 31,0 56,0 75,0 38,0 70,2 96,7 26,5 68,18 125,39 179,68 306,170 382,306 69,121 104,269 104,444 0,216 -39,410 -118,580 -50,110 -108,188 -175,235 -93,66 -220,99 -382,99 h -139 l -171,-18 z m 54,-1137 v 563 l -4,207 c 0,26 -2,49 -7,68 -5,19 -7,39 -7,61 0,35 10,67 29,94 19,27 49,41 89,41 64,0 110,-35 136,-104 17,-45 25,-102 25,-171 v -770 -71 c 0,-149 -14,-250 -42,-301 -28,-51 -70,-77 -126,-77 -44,0 -74,14 -89,43 -15,29 -23,58 -23,89 v 121 c 7,40 12,69 14,86 2,17 4,57 4,121 z m 1497,-1364 h 514 c 17,0 30,-2 41,-7 11,-4 22,-10 34,-15 17,-4 43,-7 79,-7 31,0 54,3 70,9 15,6 23,36 23,91 l 18,125 c 2,17 10,49 23,96 13,48 20,85 20,111 0,36 -1,56 -4,61 -10,24 -37,36 -82,36 -57,0 -96,-31 -118,-93 -12,-48 -20,-81 -25,-98 -17,-55 -45,-103 -86,-144 -40,-41 -81,-61 -121,-61 -36,0 -61,10 -77,30 -15,20 -23,47 -23,80 0,21 1,43 4,66 2,23 5,45 7,66 v 461 c 0,55 5,94 14,118 21,52 63,79 125,79 26,0 46,-4 59,-13 13,-8 24,-23 32,-43 8,-20 15,-37 20,-50 5,-13 31,-20 79,-20 33,0 57,5 71,16 14,11 27,43 38,98 11,55 35,119 73,193 17,33 25,57 25,71 0,31 -7,57 -21,77 -14,20 -41,30 -82,30 -40,0 -72,-20 -96,-61 -17,-36 -33,-71 -49,-107 -33,-60 -82,-89 -146,-89 -57,0 -95,18 -113,54 -19,36 -29,81 -29,136 0,43 0,73 0,89 v 672 c 0,29 -1,58 -4,89 -2,31 -5,62 -7,93 0,52 8,92 25,118 17,26 51,39 104,39 40,0 79,-17 114,-50 36,-33 64,-87 84,-161 20,-74 36,-121 48,-143 26,-50 66,-75 118,-75 17,0 29,1 36,4 31,12 46,38 46,79 0,17 -4,39 -11,68 -36,117 -54,231 -54,343 0,40 -4,66 -13,77 -8,11 -27,16 -55,16 -38,0 -66,-4 -84,-13 -18,-8 -37,-17 -57,-27 -20,-10 -54,-14 -102,-14 h -68 -600 c -26,0 -51,1 -73,4 -23,2 -45,5 -66,7 -43,0 -64,-21 -64,-64 0,-21 10,-39 29,-52 19,-13 32,-24 38,-32 6,-8 9,-28 9,-59 0,-21 0,-64 0,-127 0,-63 0,-115 0,-155 v -1740 -100 c 0,-43 -4,-70 -10,-82 -7,-12 -18,-21 -34,-27 -16,-6 -24,-18 -24,-38 0,-36 26,-54 79,-54 l 86,7 c 55,7 126,11 214,11 z"
   class="fil0"
   inkscape:connector-curvature="0"
   style="fill:#ffffff;fill-rule:nonzero" />

 </g>
    </g>
  </g>
</svg>
