<?xml version="1.0" encoding="utf-8"?>
<!-- Generator: Adobe Illustrator 22.1.0, SVG Export Plug-In . SVG Version: 6.00 Build 0)  -->
<svg version="1.1" id="Слой_1" xmlns="http://www.w3.org/2000/svg" xmlns:xlink="http://www.w3.org/1999/xlink" x="0px" y="0px"
	 viewBox="0 0 100 100" style="enable-background:new 0 0 100 100;" xml:space="preserve">
<style type="text/css">
	.st0{fill:none;}
</style>
<g>
	<path class="st0" d="M60.6,39.1c0,0.1,0,0.2,0,0.3c0,0.1,0,0.2,0,0.3c0,0.2,0,0.3,0.1,0.5c0.1,0.1,0.2,0.2,0.4,0.2
		c0.3,0,0.5-0.2,0.7-0.5c0.1-0.2,0.1-0.5,0.1-0.8v-3.7V35c0-0.7-0.1-1.2-0.2-1.4c-0.1-0.2-0.3-0.4-0.6-0.4c-0.2,0-0.4,0.1-0.4,0.2
		c-0.1,0.1-0.1,0.3-0.1,0.4v0.6c0,0.2,0.1,0.3,0.1,0.4c0,0.1,0,0.3,0,0.6v2.7L60.6,39.1z"/>
	<path class="st0" d="M32.2,30.7c0,0.1,0,0.3,0,0.4v3.4c0,0.1,0,0.3,0,0.5s0,0.4,0,0.5c0,0.3,0,0.5,0.1,0.7c0.1,0.1,0.2,0.2,0.4,0.2
		c0.4,0,0.6-0.3,0.7-0.8c0.1-0.3,0.1-0.7,0.1-1.3v-3.2c0-0.4,0-0.7,0-0.8c0-0.2,0-0.3-0.1-0.5c0-0.2-0.1-0.3-0.3-0.4
		s-0.2-0.1-0.4-0.1c-0.2,0-0.3,0-0.5,0.1c-0.1,0.1-0.2,0.2-0.2,0.4c0,0.1,0,0.2,0,0.4C32.2,30.4,32.2,30.5,32.2,30.7z"/>
	<path d="M11.2,40.9c0.1,0,0.2,0,0.3,0s0.2,0,0.3,0h0.4c0,0,0.1,0,0.3,0.1s0.3,0.1,0.4,0.1c0.2,0,0.4-0.1,0.4-0.3
		c0-0.1-0.1-0.2-0.2-0.3c-0.1,0-0.2-0.1-0.3-0.2s-0.2-0.1-0.2-0.2c0-0.1-0.1-0.2-0.1-0.4c0,0,0-0.1,0-0.2c0-0.1,0-0.2,0-0.3v-3.7
		c0,0,0-0.1,0-0.4c0-0.2,0-0.4,0-0.6c0-0.2,0-0.3,0.1-0.4c0-0.1,0.1-0.1,0.2-0.1c0.1,0,0.3,0.1,0.4,0.2c0,0,0.1,0.1,0.2,0.2
		c0.1,0.1,0.2,0.3,0.5,0.5c0.2,0.2,0.4,0.3,0.5,0.3c0.1,0,0.3-0.2,0.5-0.5c0.2-0.4,0.4-0.7,0.6-1.1c0.1-0.2,0.2-0.3,0.3-0.4
		c0.1-0.2,0.3-0.3,0.4-0.3c0.1,0,0.2,0,0.3,0.1c0.1,0.1,0.2,0.2,0.2,0.4c0,0.1,0,0.2-0.1,0.3c-0.1,0.3-0.1,0.5-0.2,0.6
		c-0.1,0.3-0.1,0.6-0.1,1v4.6c0,0.2,0,0.4-0.1,0.4c-0.1,0-0.1,0.1-0.2,0.1c-0.1,0.1-0.1,0.2-0.1,0.3c0,0.2,0.1,0.3,0.4,0.3
		c0.1,0,0.1,0,0.3-0.1c0.1,0,0.3-0.1,0.5-0.1h1.4c0.1,0,0.3,0,0.4,0.1c0.2,0,0.3,0.1,0.4,0.1c0.2,0,0.4-0.1,0.4-0.3
		c0-0.1-0.1-0.2-0.2-0.3c0,0-0.1-0.1-0.2-0.1c0-0.1-0.1-0.2-0.1-0.4c0-0.9,0-1.8,0-2.8c0-0.9,0-1.7,0-2.3c0-1.9,0-3.2,0-3.9
		s0-1.1,0-1.2s0-0.2,0-0.3c0,0,0.1-0.1,0.1-0.2c0.1-0.1,0.1-0.1,0.1-0.1c0,0,0-0.1,0-0.1c0-0.1-0.1-0.2-0.2-0.2l-0.5,0.1
		c-0.1,0-0.2,0-0.4-0.1c-0.2,0-0.4,0.1-0.5,0.3c-0.1,0.1-0.4,0.5-0.8,1c-0.3,0.5-0.5,0.8-0.6,0.9c-0.2,0.3-0.4,0.6-0.5,0.7
		s-0.3,0.2-0.4,0.2c-0.1,0-0.3,0-0.4-0.1c-0.1-0.1-0.3-0.2-0.4-0.3c-0.1-0.1-0.2-0.2-0.3-0.3c-0.1-0.1-0.1-0.2-0.2-0.4
		c-0.2-0.3-0.5-0.7-0.8-1c-0.5-0.5-0.7-0.8-0.7-0.8c-0.1-0.1-0.2-0.1-0.4-0.1l-0.5,0.1l-0.4-0.1c-0.2,0-0.3,0.1-0.3,0.2
		c0,0.1,0.1,0.3,0.2,0.3s0.2,0.2,0.2,0.2s0,0.1,0,0.2v2.8v6c0,0.9-0.1,1.4-0.2,1.6c-0.1,0.1-0.2,0.2-0.2,0.3
		c-0.1,0.1-0.1,0.2-0.1,0.3C10.9,40.9,11,40.9,11.2,40.9z"/>
	<path d="M20.2,40.8c0,0.2,0.1,0.3,0.3,0.3c0.1,0,0.3,0,0.4-0.1s0.4-0.1,0.7-0.1h1.1c0.1,0,0.2,0,0.4,0.1c0.2,0,0.3,0.1,0.4,0.1
		c0.2,0,0.3-0.1,0.3-0.3c0-0.1,0-0.2-0.1-0.2c-0.1,0-0.1-0.1-0.1-0.1c-0.1-0.1-0.2-0.1-0.2-0.2c0-0.1,0-0.2,0-0.3v-1.9
		c0-0.1,0-0.3,0-0.5c0-0.2,0-0.4,0-0.6c0-0.1,0-0.3,0.1-0.5c0-0.2,0.1-0.4,0.2-0.6c0.2-0.6,0.5-1.1,0.7-1.7c0.1-0.3,0.3-0.6,0.4-1
		c0-0.1,0.1-0.2,0.1-0.3c0.1-0.1,0.1-0.2,0.2-0.2c0.1,0,0.2,0.1,0.2,0.3c0,0,0,0.1,0,0.2c0,0.1,0,0.2,0,0.2c0,0.2-0.1,0.5-0.1,1
		s0,0.8,0,1.1v3.6c0,0.1,0,0.3,0,0.5s0,0.3,0,0.4c0,0.3,0,0.5-0.1,0.5c0,0-0.1,0.1-0.1,0.1c-0.1,0.1-0.1,0.2-0.1,0.2
		c0,0.1,0,0.2,0.1,0.2c0.1,0,0.2,0.1,0.3,0.1c0.1,0,0.3,0,0.4,0s0.3,0,0.5,0h1.1c0.2,0,0.3,0,0.4,0.1c0.1,0,0.2,0.1,0.3,0.1
		c0.2,0,0.4-0.1,0.4-0.3c0-0.1-0.1-0.2-0.2-0.3c-0.2-0.1-0.2-0.3-0.2-0.5c0-0.9,0-1.7,0.1-2.4c0-0.7,0-1.8,0-3.2v-1.9
		c0-0.5,0-0.9,0-1.4c0-0.5,0-0.9,0-1.2c0-0.2,0.1-0.4,0.2-0.4c0.1,0,0.2-0.1,0.2-0.3c0-0.1-0.1-0.2-0.3-0.2c-0.1,0-0.2,0-0.3,0
		c-0.1,0-0.2,0-0.3,0h-1.6l-0.3-0.1h-0.3c-0.2,0-0.3,0.1-0.3,0.3c0,0.1,0.1,0.2,0.2,0.3s0.2,0.2,0.2,0.2c0,0.1,0,0.2,0,0.2
		c0,0.3-0.1,0.6-0.2,0.9c-0.3,0.7-0.6,1.4-0.8,2c-0.1,0.3-0.2,0.5-0.3,0.8c-0.1,0.3-0.2,0.5-0.3,0.5c-0.1,0-0.2-0.1-0.2-0.2
		c0-0.1,0-0.4,0-0.7s0-0.6,0-0.9v-2.4c0-0.1,0-0.2,0-0.3c0-0.1,0.1-0.1,0.1-0.1c0.1-0.1,0.1-0.1,0.2-0.2c0,0,0-0.1,0-0.2
		c0-0.2-0.1-0.3-0.3-0.3c-0.1,0-0.2,0-0.3,0c-0.1,0-0.2,0-0.4,0h-1.8c0,0-0.1,0-0.2,0s-0.2,0-0.3,0c-0.2,0-0.3,0.1-0.3,0.2
		c0,0.1,0.1,0.1,0.2,0.3c0.1,0.1,0.1,0.2,0.1,0.4c0,1.2,0,2.3-0.1,3.3s0,1.9,0,2.8c0,0.2,0,0.7,0,1.6c0,0.9,0,1.7,0,2.5
		c0,0.3-0.1,0.5-0.2,0.5S20.2,40.6,20.2,40.8z"/>
	<path d="M29.3,30.6v8.1c0,0.1,0,0.3,0,0.6s0,0.4,0,0.5c0,0.1,0,0.1,0,0.2c0,0.1-0.1,0.2-0.2,0.3c0,0-0.1,0.1-0.1,0.1
		c0,0-0.1,0.1-0.1,0.1c0,0.1,0,0.2,0,0.2c0,0.1,0.1,0.1,0.3,0.1c0,0,0.2,0,0.3,0s0.3,0,0.4,0h1.6c0,0,0.1,0,0.3,0s0.3,0,0.5,0
		c0.1,0,0.2,0,0.3,0c0.1,0,0.1-0.1,0.1-0.2c0-0.1,0-0.2-0.1-0.2c-0.1-0.1-0.1-0.1-0.2-0.2c-0.2-0.1-0.2-0.2-0.2-0.3v-0.2v-1.7
		c0-0.5,0.1-0.8,0.2-1c0.2-0.2,0.6-0.3,1.2-0.3c0.1,0,0.3,0,0.5,0c0.2,0,0.5-0.1,0.6-0.1c0.5-0.2,0.9-0.6,1.3-1.2
		c0.4-0.7,0.6-1.6,0.6-2.7c0-0.7-0.1-1.3-0.3-1.9c-0.3-0.8-0.9-1.4-1.6-1.8c-0.5-0.3-1-0.4-1.5-0.4l-0.8,0.1h-0.7h-1.7
		c-0.1,0-0.3,0-0.4,0c-0.2,0-0.3,0-0.4,0c-0.3,0-0.4,0.1-0.4,0.2c0,0.1,0,0.1,0.1,0.2c0,0,0.1,0.1,0.2,0.1c0.1,0.1,0.1,0.2,0.1,0.4
		c0,0.2,0,0.3,0,0.5S29.3,30.5,29.3,30.6z M32.3,29.5c0.1-0.1,0.3-0.1,0.5-0.1c0.1,0,0.2,0,0.4,0.1s0.2,0.2,0.3,0.4
		c0,0.2,0.1,0.3,0.1,0.5c0,0.2,0,0.5,0,0.8v3.2c0,0.6,0,1.1-0.1,1.3c-0.1,0.5-0.3,0.8-0.7,0.8c-0.2,0-0.3-0.1-0.4-0.2
		c-0.1-0.1-0.1-0.4-0.1-0.7c0-0.1,0-0.3,0-0.5s0-0.4,0-0.5v-3.4c0-0.1,0-0.3,0-0.4c0-0.1,0-0.3-0.1-0.4c0-0.1,0-0.3,0-0.4
		C32.1,29.7,32.2,29.5,32.3,29.5z"/>
	<path d="M41.7,40.9c0.1,0,0.2,0,0.3,0s0.2,0,0.3,0h0.4c0,0,0.1,0,0.3,0.1s0.3,0.1,0.4,0.1c0.2,0,0.4-0.1,0.4-0.3
		c0-0.1-0.1-0.2-0.2-0.3c-0.1,0-0.2-0.1-0.3-0.2S43,40.1,43,40c0-0.1-0.1-0.2-0.1-0.4c0,0,0-0.1,0-0.2c0-0.1,0-0.2,0-0.3v-3.7
		c0,0,0-0.1,0-0.4c0-0.2,0-0.4,0-0.6c0-0.2,0-0.3,0.1-0.4c0-0.1,0.1-0.1,0.2-0.1c0.1,0,0.3,0.1,0.4,0.2c0,0,0.1,0.1,0.2,0.2
		c0.1,0.1,0.2,0.3,0.5,0.5c0.2,0.2,0.4,0.3,0.5,0.3c0.1,0,0.3-0.2,0.5-0.5c0.2-0.4,0.4-0.7,0.6-1.1c0.1-0.2,0.2-0.3,0.3-0.4
		c0.1-0.2,0.3-0.3,0.4-0.3c0.1,0,0.2,0,0.3,0.1C47,33,47,33.1,47,33.3c0,0.1,0,0.2-0.1,0.3c-0.1,0.3-0.1,0.5-0.2,0.6
		c-0.1,0.3-0.1,0.6-0.1,1v4.6c0,0.2,0,0.4-0.1,0.4c-0.1,0-0.1,0.1-0.2,0.1c-0.1,0.1-0.1,0.2-0.1,0.3c0,0.2,0.1,0.3,0.4,0.3
		c0.1,0,0.1,0,0.3-0.1c0.1,0,0.3-0.1,0.5-0.1h1.4c0.1,0,0.3,0,0.4,0.1c0.2,0,0.3,0.1,0.4,0.1c0.2,0,0.4-0.1,0.4-0.3
		c0-0.1-0.1-0.2-0.2-0.3c0,0-0.1-0.1-0.2-0.1c0-0.1-0.1-0.2-0.1-0.4c0-0.9,0-1.8,0-2.8c0-0.9,0-1.7,0-2.3c0-1.9,0-3.2,0-3.9
		s0-1.1,0-1.2s0-0.2,0-0.3c0,0,0.1-0.1,0.1-0.2c0.1-0.1,0.1-0.1,0.1-0.1c0,0,0-0.1,0-0.1c0-0.1-0.1-0.2-0.2-0.2l-0.5,0.1
		c-0.1,0-0.2,0-0.4-0.1c-0.2,0-0.4,0.1-0.5,0.3c-0.1,0.1-0.4,0.5-0.8,1c-0.3,0.5-0.5,0.8-0.6,0.9c-0.2,0.3-0.4,0.6-0.5,0.7
		s-0.3,0.2-0.4,0.2c-0.1,0-0.3,0-0.4-0.1c-0.1-0.1-0.3-0.2-0.4-0.3c-0.1-0.1-0.2-0.2-0.3-0.3c-0.1-0.1-0.1-0.2-0.2-0.4
		c-0.2-0.3-0.5-0.7-0.8-1c-0.5-0.5-0.7-0.8-0.7-0.8c-0.1-0.1-0.2-0.1-0.4-0.1l-0.5,0.1l-0.4-0.1c-0.2,0-0.3,0.1-0.3,0.2
		c0,0.1,0.1,0.3,0.2,0.3s0.2,0.2,0.2,0.2s0,0.1,0,0.2v2.8v6c0,0.9-0.1,1.4-0.2,1.6c-0.1,0.1-0.2,0.2-0.2,0.3
		c-0.1,0.1-0.1,0.2-0.1,0.3C41.4,40.9,41.5,40.9,41.7,40.9z"/>
	<path d="M51.1,38.6c0,0.2,0,0.4,0,0.7s0,0.5,0,0.6c0,0.1,0,0.2,0,0.3s-0.1,0.1-0.2,0.2c-0.1,0.1-0.1,0.1-0.1,0.2
		c0,0.2,0.1,0.3,0.3,0.3c0.1,0,0.2,0,0.3,0c0.1,0,0.2,0,0.4,0h2.9h0.3c0.2,0,0.4,0,0.5,0.1c0.1,0,0.2,0.1,0.3,0.1
		c0.1,0,0.2,0.1,0.4,0.1c0.1,0,0.2,0,0.3-0.1c0-0.1,0.1-0.2,0.1-0.4c0-0.5,0.1-1.1,0.3-1.6c0-0.1,0.1-0.2,0.1-0.3
		c0-0.2-0.1-0.3-0.2-0.4c0,0-0.1,0-0.2,0c-0.3,0-0.4,0.1-0.6,0.4c-0.1,0.1-0.1,0.3-0.2,0.7c-0.1,0.4-0.2,0.6-0.4,0.8
		c-0.2,0.2-0.4,0.2-0.5,0.2c-0.3,0-0.4-0.1-0.5-0.2s-0.1-0.3-0.1-0.6c0-0.1,0-0.3,0-0.4c0-0.1,0-0.3,0-0.4v-3.2c0-0.1,0-0.2,0-0.4
		c0-0.3,0-0.5,0.1-0.7c0.1-0.2,0.3-0.3,0.5-0.3c0.3,0,0.5,0.1,0.7,0.4c0.1,0.2,0.2,0.3,0.2,0.5c0.1,0.2,0.3,0.3,0.5,0.3
		c0.2,0,0.3,0,0.4-0.1s0.1-0.2,0.1-0.4c0-0.1,0-0.2-0.1-0.3c-0.2-0.4-0.3-0.7-0.4-0.9c-0.1-0.3-0.1-0.4-0.2-0.5
		c-0.1-0.1-0.2-0.1-0.3-0.1c-0.2,0-0.4,0-0.4,0.1s-0.1,0.1-0.1,0.2s-0.1,0.2-0.2,0.2c-0.1,0-0.2,0.1-0.3,0.1c-0.3,0-0.5-0.1-0.6-0.4
		c0-0.1-0.1-0.3-0.1-0.6v-2.2c0-0.1,0-0.2,0-0.3c0-0.1,0-0.2,0-0.3c0-0.2,0-0.3,0.1-0.4s0.2-0.1,0.4-0.1c0.2,0,0.4,0.1,0.6,0.3
		c0.2,0.2,0.3,0.4,0.4,0.7c0,0.1,0.1,0.2,0.1,0.5c0.1,0.3,0.3,0.5,0.6,0.5c0.2,0,0.3-0.1,0.4-0.2c0,0,0-0.1,0-0.3
		c0-0.1,0-0.3-0.1-0.5c-0.1-0.2-0.1-0.4-0.1-0.5l-0.1-0.6c0-0.3,0-0.4-0.1-0.4c-0.1,0-0.2,0-0.3,0c-0.2,0-0.3,0-0.4,0
		c-0.1,0-0.1,0.1-0.2,0.1c-0.1,0-0.1,0-0.2,0h-2.5c-0.4,0-0.8,0-1-0.1l-0.4,0c-0.3,0-0.4,0.1-0.4,0.3c0,0.1,0,0.2,0.1,0.2
		c0.1,0,0.1,0.1,0.2,0.1c0,0.1,0,0.2,0,0.4v0.5V38.6z"/>
	<path d="M57.5,40.5c0,0.1-0.1,0.1-0.1,0.2c0,0.2,0.1,0.3,0.4,0.3c0.1,0,0.2,0,0.4,0c0.2,0,0.3,0,0.4,0h1.8l0.8,0.1h0.7
		c0.8,0,1.4-0.2,1.8-0.5c0.3-0.2,0.6-0.6,0.8-1.1c0.4-0.8,0.6-1.7,0.6-2.8c0-0.8-0.2-1.6-0.5-2.1c-0.4-0.6-1-1.1-1.8-1.5
		c-0.3-0.1-0.5-0.2-0.6-0.2c-0.1,0-0.3,0-0.5,0c-0.1,0-0.2,0-0.4,0s-0.3,0-0.3,0c-0.2,0-0.3,0-0.3-0.1c-0.1-0.1-0.1-0.2-0.1-0.4
		c0-0.1,0-0.3,0-0.5c0-0.2,0-0.4,0-0.6c0-0.1,0-0.2,0-0.3s0-0.2,0-0.3c0,0,0-0.1,0-0.2c0-0.3,0.1-0.5,0.2-0.7
		c0.2-0.2,0.4-0.3,0.7-0.3c0.3,0,0.5,0.1,0.7,0.3c0.2,0.2,0.3,0.4,0.3,0.7c0,0.1,0.1,0.4,0.1,0.8s0.3,0.6,0.7,0.6
		c0.2,0,0.3-0.1,0.3-0.2c0-0.1,0.1-0.2,0.1-0.4c0-0.1,0-0.3-0.1-0.5c0-0.2-0.1-0.3-0.1-0.4l-0.1-0.6c0-0.4,0-0.7-0.1-0.8
		c0-0.1-0.2-0.1-0.4-0.1c-0.1,0-0.3,0-0.4,0.1c-0.2,0-0.3,0.1-0.5,0.1h-2.9c-0.2,0-0.4,0-0.7,0c-0.3,0-0.6,0-0.7,0
		c-0.3,0-0.4,0.1-0.4,0.3c0,0.1,0,0.1,0.1,0.1s0.1,0.1,0.2,0.1c0.1,0,0.1,0.2,0.1,0.4v0.2v2.3v3.6c0,0.7,0,1.4,0,2.2
		c0,0.8,0,1.4,0,2c0,0.2,0,0.4-0.1,0.4C57.6,40.4,57.5,40.5,57.5,40.5z M60.6,34.8c0-0.1,0-0.2-0.1-0.4v-0.6c0-0.1,0-0.3,0.1-0.4
		c0.1-0.1,0.2-0.2,0.4-0.2c0.3,0,0.5,0.1,0.6,0.4c0.1,0.2,0.2,0.7,0.2,1.4v0.3v3.7c0,0.3,0,0.6-0.1,0.8c-0.1,0.3-0.3,0.5-0.7,0.5
		c-0.2,0-0.3-0.1-0.4-0.2c-0.1-0.1-0.1-0.3-0.1-0.5c0-0.1,0-0.2,0-0.3c0-0.1,0-0.2,0-0.3l0-1v-2.7C60.7,35.1,60.7,34.9,60.6,34.8z"
		/>
	<path d="M66.4,38.6c0,0.2,0,0.4,0,0.7s0,0.5,0,0.6c0,0.1,0,0.2,0,0.3c0,0-0.1,0.1-0.2,0.2C66,40.4,66,40.5,66,40.6
		c0,0.2,0.1,0.3,0.3,0.3c0.1,0,0.2,0,0.3,0s0.2,0,0.4,0h2.9h0.3c0.2,0,0.4,0,0.5,0.1c0.1,0,0.2,0.1,0.3,0.1s0.2,0.1,0.4,0.1
		c0.1,0,0.2,0,0.3-0.1c0-0.1,0.1-0.2,0.1-0.4c0-0.5,0.1-1.1,0.3-1.6c0-0.1,0.1-0.2,0.1-0.3c0-0.2-0.1-0.3-0.2-0.4c0,0-0.1,0-0.2,0
		c-0.3,0-0.4,0.1-0.6,0.4c-0.1,0.1-0.1,0.3-0.2,0.7c-0.1,0.4-0.2,0.6-0.4,0.8c-0.2,0.2-0.4,0.2-0.5,0.2c-0.3,0-0.4-0.1-0.5-0.2
		s-0.1-0.3-0.1-0.6c0-0.1,0-0.3,0-0.4c0-0.1,0-0.3,0-0.4v-3.2c0-0.1,0-0.2,0-0.4c0-0.3,0-0.5,0.1-0.7c0.1-0.2,0.3-0.3,0.5-0.3
		c0.3,0,0.5,0.1,0.7,0.4c0.1,0.2,0.2,0.3,0.2,0.5c0.1,0.2,0.3,0.3,0.5,0.3s0.3,0,0.4-0.1c0.1-0.1,0.1-0.2,0.1-0.4
		c0-0.1,0-0.2-0.1-0.3c-0.2-0.4-0.3-0.7-0.4-0.9c-0.1-0.3-0.1-0.4-0.2-0.5c-0.1-0.1-0.2-0.1-0.3-0.1c-0.2,0-0.4,0-0.4,0.1
		c0,0.1-0.1,0.1-0.1,0.2s-0.1,0.2-0.2,0.2c-0.1,0-0.2,0.1-0.3,0.1c-0.3,0-0.5-0.1-0.6-0.4c0-0.1-0.1-0.3-0.1-0.6v-2.2
		c0-0.1,0-0.2,0-0.3c0-0.1,0-0.2,0-0.3c0-0.2,0-0.3,0.1-0.4s0.2-0.1,0.4-0.1c0.2,0,0.4,0.1,0.6,0.3s0.3,0.4,0.4,0.7
		c0,0.1,0.1,0.2,0.1,0.5c0.1,0.3,0.3,0.5,0.6,0.5c0.2,0,0.3-0.1,0.4-0.2c0,0,0-0.1,0-0.3c0-0.1,0-0.3-0.1-0.5
		c-0.1-0.2-0.1-0.4-0.1-0.5l-0.1-0.6c0-0.3,0-0.4-0.1-0.4c-0.1,0-0.2,0-0.3,0c-0.2,0-0.3,0-0.4,0c-0.1,0-0.1,0.1-0.2,0.1
		c-0.1,0-0.1,0-0.2,0h-2.5c-0.4,0-0.8,0-1-0.1l-0.4,0c-0.3,0-0.4,0.1-0.4,0.3c0,0.1,0,0.2,0.1,0.2c0.1,0,0.1,0.1,0.2,0.1
		c0,0.1,0,0.2,0,0.4v0.5V38.6z"/>
	<path d="M72.9,41c0.1,0,0.2,0,0.3,0c0.1,0,0.3,0,0.5,0c0.2,0,0.4,0,0.6,0c0.2,0,0.4,0,0.5,0c0.1,0,0.2,0,0.3,0
		c0.1,0,0.1-0.1,0.1-0.2c0-0.1,0-0.2-0.1-0.2c-0.1-0.1-0.1-0.1-0.2-0.1c-0.2-0.1-0.3-0.2-0.4-0.3s-0.1-0.3-0.1-0.5
		c0-0.5,0.1-1.4,0.3-2.7c0.2-1.1,0.3-1.9,0.4-2.4c0.1-0.6,0.2-0.9,0.3-1.1c0.1-0.4,0.3-0.6,0.6-0.6c0.2,0,0.3,0.1,0.4,0.3
		c0,0.1,0,0.3,0,0.5c0,0.3,0,0.7,0.1,1.1c0.1,0.5,0.2,1.1,0.3,2.1c0,0.1,0.1,0.8,0.3,1.9c0.1,0.4,0.1,0.6,0.1,0.8
		c0,0.3,0,0.5-0.1,0.6c0,0-0.1,0.1-0.3,0.2c-0.2,0.1-0.2,0.2-0.2,0.3c0,0.2,0.1,0.3,0.4,0.3c0.1,0,0.2,0,0.3,0c0.1,0,0.2,0,0.4-0.1
		l0.5,0h1c0.1,0,0.2,0,0.3,0c0.1,0,0.2,0,0.3,0c0.1,0,0.2,0,0.3,0.1c0.1,0,0.2,0,0.4,0c0.1,0,0.2,0,0.2-0.1s0.1-0.1,0.1-0.3
		c0-0.1,0-0.2-0.1-0.2c-0.1,0-0.1-0.1-0.3-0.1C80,40.2,80,40.1,79.9,40c-0.1-0.1-0.1-0.3-0.1-0.5l-0.2-2.1l-0.4-3.2
		c-0.2-1.1-0.3-2.1-0.5-3.1c-0.2-1-0.4-1.6-0.5-1.9c-0.1-0.2-0.2-0.3-0.2-0.4c-0.1-0.1-0.2-0.1-0.5-0.1c-0.2,0-0.4,0-0.7,0.1
		l-0.6,0.1l-0.4,0c0,0-0.1,0-0.4,0c-0.2,0-0.4,0-0.5,0c-0.3,0-0.5,0.1-0.5,0.3c0,0.1,0,0.2,0.1,0.3c0.1,0.1,0.1,0.1,0.2,0.2
		c0.1,0.1,0.3,0.2,0.3,0.2c0.1,0.1,0.1,0.2,0.1,0.4c0,0.2,0,0.4-0.1,0.8c-0.2,0.8-0.5,1.7-0.7,2.5c-0.3,1.3-0.6,2.6-0.7,3.9l-0.1,1
		L73.4,39l-0.1,0.8c0,0.3-0.1,0.4-0.3,0.5c-0.1,0-0.2,0.1-0.4,0.2c-0.1,0.1-0.2,0.2-0.2,0.3C72.5,40.9,72.6,41,72.9,41z"/>
	<path d="M81.1,40.8c0,0.2,0.1,0.3,0.3,0.3c0.1,0,0.3,0,0.4-0.1s0.4-0.1,0.7-0.1h1.1c0.1,0,0.2,0,0.4,0.1s0.3,0.1,0.4,0.1
		c0.2,0,0.3-0.1,0.3-0.3c0-0.1,0-0.2-0.1-0.2c-0.1,0-0.1-0.1-0.1-0.1c-0.1-0.1-0.2-0.1-0.2-0.2c0-0.1,0-0.2,0-0.3v-1.9
		c0-0.1,0-0.3,0-0.5c0-0.2,0-0.4,0-0.6c0-0.1,0-0.3,0.1-0.5c0-0.2,0.1-0.4,0.2-0.6c0.2-0.6,0.5-1.1,0.7-1.7c0.1-0.3,0.3-0.6,0.4-1
		c0-0.1,0.1-0.2,0.1-0.3s0.1-0.2,0.2-0.2c0.1,0,0.2,0.1,0.2,0.3c0,0,0,0.1,0,0.2c0,0.1,0,0.2,0,0.2c0,0.2-0.1,0.5-0.1,1
		c0,0.5,0,0.8,0,1.1v3.6c0,0.1,0,0.3,0,0.5s0,0.3,0,0.4c0,0.3,0,0.5-0.1,0.5c0,0-0.1,0.1-0.1,0.1c-0.1,0.1-0.1,0.2-0.1,0.2
		c0,0.1,0,0.2,0.1,0.2c0.1,0,0.2,0.1,0.3,0.1c0.1,0,0.3,0,0.4,0s0.3,0,0.5,0h1.1c0.2,0,0.3,0,0.4,0.1s0.2,0.1,0.3,0.1
		c0.2,0,0.4-0.1,0.4-0.3c0-0.1-0.1-0.2-0.2-0.3c-0.2-0.1-0.2-0.3-0.2-0.5c0-0.9,0-1.7,0.1-2.4c0-0.7,0-1.8,0-3.2v-1.9
		c0-0.5,0-0.9,0-1.4c0-0.5,0-0.9,0-1.2c0-0.2,0.1-0.4,0.2-0.4c0.1,0,0.2-0.1,0.2-0.3c0-0.1-0.1-0.2-0.3-0.2c-0.1,0-0.2,0-0.3,0
		c-0.1,0-0.2,0-0.3,0h-1.6l-0.3-0.1h-0.3c-0.2,0-0.3,0.1-0.3,0.3c0,0.1,0.1,0.2,0.2,0.3s0.2,0.2,0.2,0.2c0,0.1,0,0.2,0,0.2
		c0,0.3-0.1,0.6-0.2,0.9c-0.3,0.7-0.6,1.4-0.8,2c-0.1,0.3-0.2,0.5-0.3,0.8c-0.1,0.3-0.2,0.5-0.3,0.5c-0.1,0-0.2-0.1-0.2-0.2
		c0-0.1,0-0.4,0-0.7c0-0.3,0-0.6,0-0.9v-2.4c0-0.1,0-0.2,0-0.3c0-0.1,0.1-0.1,0.1-0.1c0.1-0.1,0.1-0.1,0.2-0.2c0,0,0-0.1,0-0.2
		c0-0.2-0.1-0.3-0.3-0.3c-0.1,0-0.2,0-0.3,0s-0.2,0-0.4,0H82c0,0-0.1,0-0.2,0s-0.2,0-0.3,0c-0.2,0-0.3,0.1-0.3,0.2
		c0,0.1,0.1,0.1,0.2,0.3c0.1,0.1,0.1,0.2,0.1,0.4c0,1.2,0,2.3-0.1,3.3c0,1,0,1.9,0,2.8c0,0.2,0,0.7,0,1.6c0,0.9,0,1.7,0,2.5
		c0,0.3-0.1,0.5-0.2,0.5S81.1,40.6,81.1,40.8z"/>
	<path d="M82.4,47.8c-0.4-0.7-0.9-1.3-1.7-1.6c-0.6-0.2-1.3-0.3-1.9-0.1c-0.5,0.2-1,0.4-1.4,0.8c-0.8,0.6-1.6,0.9-2.6,1.1
		c-0.4,0.1-0.9,0-1.3,0c-0.1,0-0.2-0.1-0.3-0.1c-0.8-0.6-1.8-1-2.7-1.2c-0.7-0.2-1.4-0.2-2.1,0c-0.6,0.2-0.9,1.2-0.4,1.7
		c0.1,0.1,0.3,0.3,0.4,0.4c0.2,0.1,0.3,0.1,0.4-0.1c-0.1-0.1-0.3-0.2-0.4-0.4c-0.2-0.2-0.3-0.5-0.2-0.8c0.1-0.3,0.4-0.4,0.7-0.4
		c0.9,0,1.7,0.3,2.5,0.7c0.6,0.3,1.1,0.5,1.5,1c0.4,0.4,0.5,1,0.4,1.5c-0.1,0.4-0.4,0.7-0.8,0.8c-0.4,0.2-0.9,0.3-1.4,0.3
		c-0.4,0-0.7,0-1.1,0c-0.5,0-1.1-0.1-1.7-0.3c-0.9-0.2-1.7-0.4-2.6-0.7c-0.4-0.1-0.8-0.3-1.2-0.4c-0.6-0.2-1.2-0.4-1.9-0.6
		c-0.8-0.3-1.7-0.5-2.5-0.8c-0.4-0.2-0.8-0.4-1.2-0.6c-0.7-0.3-1.5-0.6-2.3-0.4c-0.4,0.1-0.7,0.3-0.9,0.7c-0.4,0.8-0.1,1.7,0.4,2.2
		c0.5,0.5,1.2,0.8,1.8,1.2c0.1,0,0.2,0.1,0.3,0.1c0.1,0,0.3,0.1,0.3-0.1c-0.8-0.3-1.5-0.9-2.1-1.6c-0.3-0.4-0.3-0.8-0.3-1.3
		c0-0.3,0.5-0.5,0.7-0.5c0.7-0.1,1.4,0.3,2,0.6c1,0.5,1.8,1.2,2.5,2.1c0.5,0.6,0.5,1.2,0.4,1.9c-0.1,0.5-0.7,0.9-1.2,1
		c-1,0.1-1.9-0.2-2.8-0.5c-0.9-0.4-1.7-0.8-2.5-1.4c-0.4-0.3-0.7-0.7-1.1-1c-0.6-0.6-1.2-1.3-1.6-2.1c-0.1-0.1-0.1-0.2-0.2-0.1
		c0,0-0.1,0.2,0,0.2c0.3,0.9,0.9,1.8,1.5,2.5c0.5,0.6,1,1.2,1.7,1.6c1.1,0.8,2.3,1.3,3.6,1.7c0.9,0.2,1.8,0.2,2.6-0.3
		c0.5-0.3,0.8-0.8,0.9-1.4c0.1-0.4,0-0.9-0.1-1.3c-0.1-0.5-0.4-1-0.8-1.4c-0.1-0.2-0.3-0.3-0.5-0.5c0.1,0,0.1,0,0.2,0
		c1.1,0.4,2.2,0.9,3.3,1.3c1.1,0.4,2.2,0.7,3.3,1c1,0.3,1.9,0.3,2.9,0.3c0.5,0,1-0.1,1.5-0.3c0.6-0.2,0.9-0.6,1.3-1.1
		c0.4-0.5,0.4-1.1,0.2-1.7c0-0.2-0.1-0.3-0.2-0.5c-0.1-0.2,0-0.2,0.2-0.2c0.4,0,0.9,0,1.3,0c0.6,0,1.1-0.2,1.7-0.5
		c0.6-0.3,1.1-0.7,1.7-0.9c0.5-0.2,1-0.2,1.5-0.1c0.6,0.1,1.1,0.6,1.5,1c0.4,0.4,0.5,1,0.4,1.5c0,0.1-0.1,0.2-0.1,0.3
		c0,0.1-0.1,0.1-0.1,0.3c0.3-0.1,0.4-0.4,0.5-0.7c0.1-0.4,0.1-0.7,0-1C82.5,48.2,82.5,48,82.4,47.8z"/>
	<path d="M47.5,48.9c0-0.1,0-0.1,0-0.2c-0.1,0-0.2,0-0.2,0.1c-0.1,0.1-0.2,0.3-0.3,0.5c-0.3,0.5-0.6,1-1,1.4
		c-0.7,0.8-1.5,1.6-2.6,2.1c-0.5,0.3-1.1,0.6-1.6,0.8c-0.8,0.3-1.7,0.5-2.6,0.4c-0.5-0.1-0.9-0.4-1.1-0.9c-0.3-0.7-0.1-1.3,0.3-1.9
		c0.4-0.7,1-1.2,1.7-1.6c0.7-0.4,1.4-0.7,2.1-1c0.3-0.1,0.7-0.1,1,0c0.3,0.1,0.5,0.3,0.5,0.6c0.1,0.5-0.1,0.9-0.4,1.3
		c-0.6,0.6-1.3,1.2-2.1,1.5c0,0-0.1,0.1-0.1,0.1c0,0,0,0.1-0.1,0.1c0.5-0.1,0.9-0.3,1.4-0.5c0.3-0.2,0.7-0.4,1-0.7
		c0.4-0.2,0.6-0.6,0.7-0.9c0.1-0.2,0.1-0.5,0.1-0.8c0.1-0.7-0.3-1.1-0.9-1.4c-0.1-0.1-0.2-0.1-0.3-0.1c-0.8-0.1-1.6,0.1-2.3,0.5
		c-0.4,0.2-0.8,0.5-1.3,0.6c-1.5,0.5-3,1-4.4,1.5c-0.8,0.2-1.6,0.5-2.4,0.7c-0.7,0.2-1.4,0.4-2.2,0.5c-0.6,0.1-1.3,0-1.9,0
		c-0.6,0-1.2-0.2-1.6-0.7c-0.6-0.6-0.5-1.3,0-1.9c0.5-0.6,1.1-1,1.8-1.2c0.4-0.1,0.8-0.3,1.2-0.4c0.4-0.2,0.8-0.1,1.1-0.1
		c0.3,0,0.5,0.2,0.6,0.5c0.1,0.2,0.1,0.4-0.1,0.6c-0.3,0.4-0.7,0.6-1.2,0.6c-0.1,0-0.2,0-0.3,0c0.7,0.3,1.6-0.1,1.9-0.7
		c0.3-0.5,0-1.2-0.5-1.5c-0.2-0.1-0.4-0.1-0.6-0.1c-0.8-0.1-1.6,0.1-2.3,0.4c-0.6,0.2-1.2,0.5-1.7,0.9c-0.2,0.2-0.5,0.2-0.8,0.3
		c-0.8,0-1.5-0.1-2.2-0.4c-0.5-0.2-1-0.5-1.4-0.8c-0.5-0.4-1.1-0.7-1.8-0.8c-0.5-0.1-1,0.1-1.5,0.2c-0.5,0.2-0.9,0.6-1.3,1
		c-0.3,0.4-0.6,0.9-0.6,1.5c0,0.3,0,0.6,0.1,0.8c0,0.1,0.2,0.2,0.3,0.3c0,0,0,0,0.1,0c0-0.1,0-0.1,0-0.2c-0.1-0.3-0.1-0.6,0.1-1
		c0.2-0.5,0.4-0.9,0.8-1.2c0.3-0.3,0.7-0.4,1.1-0.5c0.9-0.2,1.6,0.1,2.3,0.6c0.6,0.4,1.1,0.7,1.8,0.9c0.7,0.1,1.4,0.2,2.1,0.1
		c0,0,0.1,0,0.2,0c0,0.1,0,0.1,0,0.2c-0.4,0.7-0.4,1.4-0.2,2.1c0,0,0,0.1,0.1,0.1c0.4,0.5,0.8,0.9,1.3,1.1c0.4,0.1,0.7,0.2,1.1,0.2
		c0.5,0,0.9,0,1.4,0c0.4,0,0.7-0.1,1.1-0.1c0.5-0.1,0.9-0.2,1.4-0.3c0.8-0.2,1.7-0.5,2.5-0.8c0.5-0.2,1-0.4,1.5-0.5
		c0.6-0.2,1.2-0.5,1.9-0.8c0.1,0,0.1,0,0.2,0c-0.1,0.1-0.1,0.2-0.2,0.3c-0.4,0.4-0.7,0.9-0.9,1.4C37,52.2,37,53,37.4,53.7
		c0.3,0.5,0.8,0.9,1.4,1c0.7,0.2,1.4,0.1,2.1-0.1c0.8-0.2,1.6-0.5,2.3-0.9c0.5-0.3,1-0.7,1.5-1c0.2-0.1,0.3-0.3,0.5-0.4
		c0.9-0.9,1.7-2,2.2-3.2C47.4,49,47.5,49,47.5,48.9z"/>
	<path d="M50.2,49.9c-0.2-0.2-0.3-0.2-0.4,0c-0.6,0.6-1.2,1.1-1.6,1.8c-0.2,0.4-0.5,0.9-0.7,1.3c-0.2,0.7-0.3,1.4-0.2,2.1
		c0.2,1,0.7,1.8,1.3,2.6c0.4,0.4,0.7,0.9,1.1,1.3c0.2,0.2,0.3,0.2,0.4,0c0.7-0.9,1.5-1.7,2-2.8c0.2-0.5,0.3-1.1,0.3-1.8
		c0.1-1.3-0.5-2.3-1.2-3.2C51.1,50.7,50.7,50.3,50.2,49.9z"/>
	<path d="M50,48.8c0.7,0,1.3-0.5,1.3-1.4c0-0.6-0.6-1.1-1.3-1.1c-0.7-0.1-1.3,0.5-1.3,1.3C48.8,48.3,49.3,48.8,50,48.8z"/>
	<path d="M36.1,51.4c-0.5,0.5-0.8,1-1.1,1.6c-0.2,0.4-0.3,0.9-0.2,1.3c0,0.5,0.2,0.8,0.6,1.1c0.4,0.3,0.9-0.1,1-0.6
		c0-0.5-0.1-1.1-0.1-1.6c-0.1-0.6-0.2-1.2,0.2-1.8c0-0.1,0-0.1,0.1-0.2c0,0,0,0,0-0.1C36.3,51.3,36.2,51.4,36.1,51.4z"/>
	<path d="M64.2,51.8c-0.2-0.2-0.4-0.4-0.6-0.6c0,0-0.1,0-0.1,0.1c0.1,0.1,0.1,0.3,0.2,0.4c0.2,0.4,0.2,0.9,0.1,1.4
		c-0.1,0.6-0.2,1.2-0.2,1.7c0,0.3,0.3,0.8,0.6,0.8c0.3,0.1,0.7-0.2,0.9-0.5c0.1-0.2,0.1-0.3,0.1-0.5c0-0.5,0-1.1-0.2-1.6
		C64.7,52.6,64.5,52.1,64.2,51.8z"/>
	<path d="M29.6,50.3c-0.1,0-0.2,0.1-0.2,0.1c0,0,0,0,0,0.1c0.1,0,0.1,0,0.2,0c0.4,0,0.8,0,1.2,0c0.3,0,0.7-0.1,1-0.1
		c0.5-0.1,1-0.2,1.5-0.3c1.1-0.2,2.1-0.6,3-1.1c0.3-0.2,0.6-0.3,0.9-0.5c0.1,0,0.1-0.1,0.1-0.2c-0.1,0-0.2,0-0.2,0
		c-0.5,0.2-0.9,0.3-1.4,0.5c-0.5,0.2-1,0.3-1.5,0.5c-0.7,0.2-1.4,0.4-2.1,0.6c-0.4,0.1-0.8,0.2-1.2,0.3
		C30.6,50.1,30.1,50.2,29.6,50.3z"/>
	<path d="M64.6,49.4c0.7,0.3,1.5,0.5,2.2,0.7c0.4,0.1,0.8,0.1,1.2,0.2c0.3,0.1,0.7,0.1,1,0.1c0.4,0,0.7,0,1.1,0c0.2,0,0.3,0,0.5,0
		c0,0,0-0.1,0-0.1c-0.1,0-0.1-0.1-0.2-0.1c-0.3-0.1-0.7-0.1-1-0.2c-0.4-0.1-0.9-0.2-1.3-0.3c-0.5-0.1-1-0.3-1.5-0.4
		c-0.9-0.3-1.8-0.6-2.7-0.8c-0.2-0.1-0.5-0.2-0.7-0.3c-0.1,0-0.1,0-0.2,0c0,0.1,0,0.2,0.1,0.2c0.1,0.1,0.2,0.2,0.4,0.3
		C63.8,49.1,64.2,49.3,64.6,49.4z"/>
	<path d="M78.7,49.2c-0.5-0.1-0.9,0.5-0.9,0.9c0,0.4,0.5,0.8,1,0.8c0.5,0,0.9-0.3,0.9-0.8C79.6,49.6,79.2,49.2,78.7,49.2z"/>
	<path d="M21.4,49.2c-0.5,0-1,0.3-0.9,0.9c0,0.5,0.3,0.8,0.9,0.8c0.5,0,0.9-0.3,0.9-0.9C22.2,49.6,21.9,49.2,21.4,49.2z"/>
	<rect x="10.6" y="43.1" width="78.8" height="1"/>
</g>
</svg>
