<?xml version="1.0" encoding="UTF-8" standalone="no"?>
<!DOCTYPE svg PUBLIC "-//W3C//DTD SVG 1.1//EN" "http://www.w3.org/Graphics/SVG/1.1/DTD/svg11.dtd">
<svg version="1.1" xmlns="http://www.w3.org/2000/svg" xmlns:xlink="http://www.w3.org/1999/xlink" preserveAspectRatio="xMidYMid meet" viewBox="0 0 100 101" width="100" height="101"><defs><path d="M100 100.23L82.04 100.23L82.04 37.7L17.96 37.7L17.96 100.23L0 100.23L0 23.28L48.56 0L100 23.28L100 100.23Z" id="b5BwDMDn60"></path><path d="M48.56 88.03C48.56 88.03 48.56 88.03 48.56 88.03C48.56 93.89 48.56 97.14 48.56 97.79C48.56 97.79 48.56 97.79 48.56 97.79C41.77 97.79 38 97.79 37.25 97.79C37.25 97.79 37.25 97.79 37.25 97.79C37.25 91.94 37.25 88.68 37.25 88.03C37.25 88.03 37.25 88.03 37.25 88.03C44.04 88.03 47.8 88.03 48.56 88.03Z" id="a3JFQd0U5z"></path><path d="M62.53 88.03C62.53 88.03 62.53 88.03 62.53 88.03C62.53 93.89 62.53 97.14 62.53 97.79C62.53 97.79 62.53 97.79 62.53 97.79C55.74 97.79 51.97 97.79 51.22 97.79C51.22 97.79 51.22 97.79 51.22 97.79C51.22 91.94 51.22 88.68 51.22 88.03C51.22 88.03 51.22 88.03 51.22 88.03C58 88.03 61.77 88.03 62.53 88.03Z" id="a2t6CIIpgU"></path><path d="M34.59 88.03C34.59 88.03 34.59 88.03 34.59 88.03C34.59 93.89 34.59 97.14 34.59 97.79C34.59 97.79 34.59 97.79 34.59 97.79C27.8 97.79 24.04 97.79 23.28 97.79C23.28 97.79 23.28 97.79 23.28 97.79C23.28 91.94 23.28 88.68 23.28 88.03C23.28 88.03 23.28 88.03 23.28 88.03C30.07 88.03 33.84 88.03 34.59 88.03Z" id="d2UQdtItSS"></path><path d="M48.56 74.73C48.56 74.73 48.56 74.73 48.56 74.73C48.56 80.58 48.56 83.84 48.56 84.49C48.56 84.49 48.56 84.49 48.56 84.49C41.77 84.49 38 84.49 37.25 84.49C37.25 84.49 37.25 84.49 37.25 84.49C37.25 78.63 37.25 75.38 37.25 74.73C37.25 74.73 37.25 74.73 37.25 74.73C44.04 74.73 47.8 74.73 48.56 74.73Z" id="autJIWzWu"></path><path d="M34.59 74.73C34.59 74.73 34.59 74.73 34.59 74.73C34.59 80.58 34.59 83.84 34.59 84.49C34.59 84.49 34.59 84.49 34.59 84.49C27.8 84.49 24.04 84.49 23.28 84.49C23.28 84.49 23.28 84.49 23.28 84.49C23.28 78.63 23.28 75.38 23.28 74.73C23.28 74.73 23.28 74.73 23.28 74.73C30.07 74.73 33.84 74.73 34.59 74.73Z" id="j4tcl0Jadg"></path><path d="M62.53 74.73C62.53 74.73 62.53 74.73 62.53 74.73C62.53 80.58 62.53 83.84 62.53 84.49C62.53 84.49 62.53 84.49 62.53 84.49C55.74 84.49 51.97 84.49 51.22 84.49C51.22 84.49 51.22 84.49 51.22 84.49C51.22 78.63 51.22 75.38 51.22 74.73C51.22 74.73 51.22 74.73 51.22 74.73C58 74.73 61.77 74.73 62.53 74.73Z" id="d3WUcym0Jl"></path><path d="M48.56 61.2C48.56 61.2 48.56 61.2 48.56 61.2C48.56 67.06 48.56 70.31 48.56 70.96C48.56 70.96 48.56 70.96 48.56 70.96C41.77 70.96 38 70.96 37.25 70.96C37.25 70.96 37.25 70.96 37.25 70.96C37.25 65.11 37.25 61.85 37.25 61.2C37.25 61.2 37.25 61.2 37.25 61.2C44.04 61.2 47.8 61.2 48.56 61.2Z" id="bfogIkcTr"></path><path d="M34.59 61.2C34.59 61.2 34.59 61.2 34.59 61.2C34.59 67.06 34.59 70.31 34.59 70.96C34.59 70.96 34.59 70.96 34.59 70.96C27.8 70.96 24.04 70.96 23.28 70.96C23.28 70.96 23.28 70.96 23.28 70.96C23.28 65.11 23.28 61.85 23.28 61.2C23.28 61.2 23.28 61.2 23.28 61.2C30.07 61.2 33.84 61.2 34.59 61.2Z" id="d3bZs3DWQd"></path><path d="M76.27 88.03C76.27 88.03 76.27 88.03 76.27 88.03C76.27 93.89 76.27 97.14 76.27 97.79C76.27 97.79 76.27 97.79 76.27 97.79C69.49 97.79 65.72 97.79 64.97 97.79C64.97 97.79 64.97 97.79 64.97 97.79C64.97 91.94 64.97 88.68 64.97 88.03C64.97 88.03 64.97 88.03 64.97 88.03C71.75 88.03 75.52 88.03 76.27 88.03Z" id="a6biDnSeNh"></path><path d="M100 100.23L82.04 100.23L82.04 37.7L17.96 37.7L17.96 100.23L0 100.23L0 23.28L48.56 0L100 23.28L100 100.23Z" id="axTPCODmT"></path><linearGradient id="gradientdkEU69FQU" gradientUnits="userSpaceOnUse" x1="5.77" y1="17.58" x2="94.21" y2="106.03"><stop style="stop-color: #d34915;stop-opacity: 1" offset="0%"></stop><stop style="stop-color: #db6416;stop-opacity: 1" offset="16.25%"></stop><stop style="stop-color: #ed9f10;stop-opacity: 1" offset="56.34%"></stop><stop style="stop-color: #fac106;stop-opacity: 1" offset="85.3%"></stop><stop style="stop-color: #ffce01;stop-opacity: 1" offset="100%"></stop></linearGradient><path d="M48.56 88.03C48.56 88.03 48.56 88.03 48.56 88.03C48.56 93.89 48.56 97.14 48.56 97.79C48.56 97.79 48.56 97.79 48.56 97.79C41.77 97.79 38 97.79 37.25 97.79C37.25 97.79 37.25 97.79 37.25 97.79C37.25 91.94 37.25 88.68 37.25 88.03C37.25 88.03 37.25 88.03 37.25 88.03C44.04 88.03 47.8 88.03 48.56 88.03Z" id="boyKLnFsK"></path><linearGradient id="gradientaoIhb1oNq" gradientUnits="userSpaceOnUse" x1="5.77" y1="17.58" x2="94.21" y2="106.03"><stop style="stop-color: #d34915;stop-opacity: 1" offset="0%"></stop><stop style="stop-color: #db6416;stop-opacity: 1" offset="16.25%"></stop><stop style="stop-color: #ed9f10;stop-opacity: 1" offset="56.34%"></stop><stop style="stop-color: #fac106;stop-opacity: 1" offset="85.3%"></stop><stop style="stop-color: #ffce01;stop-opacity: 1" offset="100%"></stop></linearGradient><path d="M62.53 88.03C62.53 88.03 62.53 88.03 62.53 88.03C62.53 93.89 62.53 97.14 62.53 97.79C62.53 97.79 62.53 97.79 62.53 97.79C55.74 97.79 51.97 97.79 51.22 97.79C51.22 97.79 51.22 97.79 51.22 97.79C51.22 91.94 51.22 88.68 51.22 88.03C51.22 88.03 51.22 88.03 51.22 88.03C58 88.03 61.77 88.03 62.53 88.03Z" id="a12wRjPycr"></path><linearGradient id="gradientaF90xiVNb" gradientUnits="userSpaceOnUse" x1="5.77" y1="17.58" x2="94.21" y2="106.03"><stop style="stop-color: #d34915;stop-opacity: 1" offset="0%"></stop><stop style="stop-color: #db6416;stop-opacity: 1" offset="16.25%"></stop><stop style="stop-color: #ed9f10;stop-opacity: 1" offset="56.34%"></stop><stop style="stop-color: #fac106;stop-opacity: 1" offset="85.3%"></stop><stop style="stop-color: #ffce01;stop-opacity: 1" offset="100%"></stop></linearGradient><path d="M34.59 88.03C34.59 88.03 34.59 88.03 34.59 88.03C34.59 93.89 34.59 97.14 34.59 97.79C34.59 97.79 34.59 97.79 34.59 97.79C27.8 97.79 24.04 97.79 23.28 97.79C23.28 97.79 23.28 97.79 23.28 97.79C23.28 91.94 23.28 88.68 23.28 88.03C23.28 88.03 23.28 88.03 23.28 88.03C30.07 88.03 33.84 88.03 34.59 88.03Z" id="c7roMyL1n"></path><linearGradient id="gradienteFYz3UobV" gradientUnits="userSpaceOnUse" x1="5.77" y1="17.58" x2="94.21" y2="106.03"><stop style="stop-color: #d34915;stop-opacity: 1" offset="0%"></stop><stop style="stop-color: #db6416;stop-opacity: 1" offset="16.25%"></stop><stop style="stop-color: #ed9f10;stop-opacity: 1" offset="56.34%"></stop><stop style="stop-color: #fac106;stop-opacity: 1" offset="85.3%"></stop><stop style="stop-color: #ffce01;stop-opacity: 1" offset="100%"></stop></linearGradient><path d="M48.56 74.73C48.56 74.73 48.56 74.73 48.56 74.73C48.56 80.58 48.56 83.84 48.56 84.49C48.56 84.49 48.56 84.49 48.56 84.49C41.77 84.49 38 84.49 37.25 84.49C37.25 84.49 37.25 84.49 37.25 84.49C37.25 78.63 37.25 75.38 37.25 74.73C37.25 74.73 37.25 74.73 37.25 74.73C44.04 74.73 47.8 74.73 48.56 74.73Z" id="b62ecMHnBQ"></path><linearGradient id="gradientd5m51iidsg" gradientUnits="userSpaceOnUse" x1="5.77" y1="17.58" x2="94.21" y2="106.03"><stop style="stop-color: #d34915;stop-opacity: 1" offset="0%"></stop><stop style="stop-color: #db6416;stop-opacity: 1" offset="16.25%"></stop><stop style="stop-color: #ed9f10;stop-opacity: 1" offset="56.34%"></stop><stop style="stop-color: #fac106;stop-opacity: 1" offset="85.3%"></stop><stop style="stop-color: #ffce01;stop-opacity: 1" offset="100%"></stop></linearGradient><path d="M34.59 74.73C34.59 74.73 34.59 74.73 34.59 74.73C34.59 80.58 34.59 83.84 34.59 84.49C34.59 84.49 34.59 84.49 34.59 84.49C27.8 84.49 24.04 84.49 23.28 84.49C23.28 84.49 23.28 84.49 23.28 84.49C23.28 78.63 23.28 75.38 23.28 74.73C23.28 74.73 23.28 74.73 23.28 74.73C30.07 74.73 33.84 74.73 34.59 74.73Z" id="hcTX6rji"></path><linearGradient id="gradientc1ern2iPzP" gradientUnits="userSpaceOnUse" x1="5.77" y1="17.58" x2="94.21" y2="106.03"><stop style="stop-color: #d34915;stop-opacity: 1" offset="0%"></stop><stop style="stop-color: #db6416;stop-opacity: 1" offset="16.25%"></stop><stop style="stop-color: #ed9f10;stop-opacity: 1" offset="56.34%"></stop><stop style="stop-color: #fac106;stop-opacity: 1" offset="85.3%"></stop><stop style="stop-color: #ffce01;stop-opacity: 1" offset="100%"></stop></linearGradient><path d="M62.53 74.73C62.53 74.73 62.53 74.73 62.53 74.73C62.53 80.58 62.53 83.84 62.53 84.49C62.53 84.49 62.53 84.49 62.53 84.49C55.74 84.49 51.97 84.49 51.22 84.49C51.22 84.49 51.22 84.49 51.22 84.49C51.22 78.63 51.22 75.38 51.22 74.73C51.22 74.73 51.22 74.73 51.22 74.73C58 74.73 61.77 74.73 62.53 74.73Z" id="baJEB9MM9"></path><linearGradient id="gradientaWYV3JbJ0" gradientUnits="userSpaceOnUse" x1="5.77" y1="17.58" x2="94.21" y2="106.03"><stop style="stop-color: #d34915;stop-opacity: 1" offset="0%"></stop><stop style="stop-color: #db6416;stop-opacity: 1" offset="16.25%"></stop><stop style="stop-color: #ed9f10;stop-opacity: 1" offset="56.34%"></stop><stop style="stop-color: #fac106;stop-opacity: 1" offset="85.3%"></stop><stop style="stop-color: #ffce01;stop-opacity: 1" offset="100%"></stop></linearGradient><path d="M48.56 61.2C48.56 61.2 48.56 61.2 48.56 61.2C48.56 67.06 48.56 70.31 48.56 70.96C48.56 70.96 48.56 70.96 48.56 70.96C41.77 70.96 38 70.96 37.25 70.96C37.25 70.96 37.25 70.96 37.25 70.96C37.25 65.11 37.25 61.85 37.25 61.2C37.25 61.2 37.25 61.2 37.25 61.2C44.04 61.2 47.8 61.2 48.56 61.2Z" id="cXFdcJQGc"></path><linearGradient id="gradiente19UlLSo9Q" gradientUnits="userSpaceOnUse" x1="5.77" y1="17.58" x2="94.21" y2="106.03"><stop style="stop-color: #d34915;stop-opacity: 1" offset="0%"></stop><stop style="stop-color: #db6416;stop-opacity: 1" offset="16.25%"></stop><stop style="stop-color: #ed9f10;stop-opacity: 1" offset="56.34%"></stop><stop style="stop-color: #fac106;stop-opacity: 1" offset="85.3%"></stop><stop style="stop-color: #ffce01;stop-opacity: 1" offset="100%"></stop></linearGradient><path d="M34.59 61.2C34.59 61.2 34.59 61.2 34.59 61.2C34.59 67.06 34.59 70.31 34.59 70.96C34.59 70.96 34.59 70.96 34.59 70.96C27.8 70.96 24.04 70.96 23.28 70.96C23.28 70.96 23.28 70.96 23.28 70.96C23.28 65.11 23.28 61.85 23.28 61.2C23.28 61.2 23.28 61.2 23.28 61.2C30.07 61.2 33.84 61.2 34.59 61.2Z" id="b24zkhkQ5"></path><linearGradient id="gradientd2KBYQQy2e" gradientUnits="userSpaceOnUse" x1="5.77" y1="17.58" x2="94.21" y2="106.03"><stop style="stop-color: #d34915;stop-opacity: 1" offset="0%"></stop><stop style="stop-color: #db6416;stop-opacity: 1" offset="16.25%"></stop><stop style="stop-color: #ed9f10;stop-opacity: 1" offset="56.34%"></stop><stop style="stop-color: #fac106;stop-opacity: 1" offset="85.3%"></stop><stop style="stop-color: #ffce01;stop-opacity: 1" offset="100%"></stop></linearGradient><path d="M76.27 88.03C76.27 88.03 76.27 88.03 76.27 88.03C76.27 93.89 76.27 97.14 76.27 97.79C76.27 97.79 76.27 97.79 76.27 97.79C69.49 97.79 65.72 97.79 64.97 97.79C64.97 97.79 64.97 97.79 64.97 97.79C64.97 91.94 64.97 88.68 64.97 88.03C64.97 88.03 64.97 88.03 64.97 88.03C71.75 88.03 75.52 88.03 76.27 88.03Z" id="e6HWQkWaf"></path><linearGradient id="gradientbvVwdSDvV" gradientUnits="userSpaceOnUse" x1="5.77" y1="17.58" x2="94.21" y2="106.03"><stop style="stop-color: #d34915;stop-opacity: 1" offset="0%"></stop><stop style="stop-color: #db6416;stop-opacity: 1" offset="16.25%"></stop><stop style="stop-color: #ed9f10;stop-opacity: 1" offset="56.34%"></stop><stop style="stop-color: #fac106;stop-opacity: 1" offset="85.3%"></stop><stop style="stop-color: #ffce01;stop-opacity: 1" offset="100%"></stop></linearGradient></defs><g><g><g><use xlink:href="#b5BwDMDn60" opacity="1" fill="#f18519" fill-opacity="1"></use><g><use xlink:href="#b5BwDMDn60" opacity="1" fill-opacity="0" stroke="#000000" stroke-width="1" stroke-opacity="0"></use></g></g><g><use xlink:href="#a3JFQd0U5z" opacity="1" fill="#f18519" fill-opacity="1"></use><g><use xlink:href="#a3JFQd0U5z" opacity="1" fill-opacity="0" stroke="#000000" stroke-width="1" stroke-opacity="0"></use></g></g><g><use xlink:href="#a2t6CIIpgU" opacity="1" fill="#f18519" fill-opacity="1"></use><g><use xlink:href="#a2t6CIIpgU" opacity="1" fill-opacity="0" stroke="#000000" stroke-width="1" stroke-opacity="0"></use></g></g><g><use xlink:href="#d2UQdtItSS" opacity="1" fill="#f18519" fill-opacity="1"></use><g><use xlink:href="#d2UQdtItSS" opacity="1" fill-opacity="0" stroke="#000000" stroke-width="1" stroke-opacity="0"></use></g></g><g><use xlink:href="#autJIWzWu" opacity="1" fill="#f18519" fill-opacity="1"></use><g><use xlink:href="#autJIWzWu" opacity="1" fill-opacity="0" stroke="#000000" stroke-width="1" stroke-opacity="0"></use></g></g><g><use xlink:href="#j4tcl0Jadg" opacity="1" fill="#f18519" fill-opacity="1"></use><g><use xlink:href="#j4tcl0Jadg" opacity="1" fill-opacity="0" stroke="#000000" stroke-width="1" stroke-opacity="0"></use></g></g><g><use xlink:href="#d3WUcym0Jl" opacity="1" fill="#f18519" fill-opacity="1"></use><g><use xlink:href="#d3WUcym0Jl" opacity="1" fill-opacity="0" stroke="#000000" stroke-width="1" stroke-opacity="0"></use></g></g><g><use xlink:href="#bfogIkcTr" opacity="1" fill="#f18519" fill-opacity="1"></use><g><use xlink:href="#bfogIkcTr" opacity="1" fill-opacity="0" stroke="#000000" stroke-width="1" stroke-opacity="0"></use></g></g><g><use xlink:href="#d3bZs3DWQd" opacity="1" fill="#f18519" fill-opacity="1"></use><g><use xlink:href="#d3bZs3DWQd" opacity="1" fill-opacity="0" stroke="#000000" stroke-width="1" stroke-opacity="0"></use></g></g><g><use xlink:href="#a6biDnSeNh" opacity="1" fill="#f18519" fill-opacity="1"></use><g><use xlink:href="#a6biDnSeNh" opacity="1" fill-opacity="0" stroke="#000000" stroke-width="1" stroke-opacity="0"></use></g></g><g><use xlink:href="#axTPCODmT" opacity="1" fill="url(#gradientdkEU69FQU)"></use><g><use xlink:href="#axTPCODmT" opacity="1" fill-opacity="0" stroke="#000000" stroke-width="1" stroke-opacity="0"></use></g></g><g><use xlink:href="#boyKLnFsK" opacity="1" fill="url(#gradientaoIhb1oNq)"></use><g><use xlink:href="#boyKLnFsK" opacity="1" fill-opacity="0" stroke="#000000" stroke-width="1" stroke-opacity="0"></use></g></g><g><use xlink:href="#a12wRjPycr" opacity="1" fill="url(#gradientaF90xiVNb)"></use><g><use xlink:href="#a12wRjPycr" opacity="1" fill-opacity="0" stroke="#000000" stroke-width="1" stroke-opacity="0"></use></g></g><g><use xlink:href="#c7roMyL1n" opacity="1" fill="url(#gradienteFYz3UobV)"></use><g><use xlink:href="#c7roMyL1n" opacity="1" fill-opacity="0" stroke="#000000" stroke-width="1" stroke-opacity="0"></use></g></g><g><use xlink:href="#b62ecMHnBQ" opacity="1" fill="url(#gradientd5m51iidsg)"></use><g><use xlink:href="#b62ecMHnBQ" opacity="1" fill-opacity="0" stroke="#000000" stroke-width="1" stroke-opacity="0"></use></g></g><g><use xlink:href="#hcTX6rji" opacity="1" fill="url(#gradientc1ern2iPzP)"></use><g><use xlink:href="#hcTX6rji" opacity="1" fill-opacity="0" stroke="#000000" stroke-width="1" stroke-opacity="0"></use></g></g><g><use xlink:href="#baJEB9MM9" opacity="1" fill="url(#gradientaWYV3JbJ0)"></use><g><use xlink:href="#baJEB9MM9" opacity="1" fill-opacity="0" stroke="#000000" stroke-width="1" stroke-opacity="0"></use></g></g><g><use xlink:href="#cXFdcJQGc" opacity="1" fill="url(#gradiente19UlLSo9Q)"></use><g><use xlink:href="#cXFdcJQGc" opacity="1" fill-opacity="0" stroke="#000000" stroke-width="1" stroke-opacity="0"></use></g></g><g><use xlink:href="#b24zkhkQ5" opacity="1" fill="url(#gradientd2KBYQQy2e)"></use><g><use xlink:href="#b24zkhkQ5" opacity="1" fill-opacity="0" stroke="#000000" stroke-width="1" stroke-opacity="0"></use></g></g><g><use xlink:href="#e6HWQkWaf" opacity="1" fill="url(#gradientbvVwdSDvV)"></use><g><use xlink:href="#e6HWQkWaf" opacity="1" fill-opacity="0" stroke="#000000" stroke-width="1" stroke-opacity="0"></use></g></g></g></g></svg>